<?xml version="1.0" encoding="utf-8"?>
<!-- Generator: Adobe Illustrator 19.0.0, SVG Export Plug-In . SVG Version: 6.00 Build 0)  -->
<svg version="1.1" id="Layer_1" xmlns="http://www.w3.org/2000/svg" xmlns:xlink="http://www.w3.org/1999/xlink" x="0px" y="0px"
	 viewBox="16 -16 64 64" style="enable-background:new 16 -16 64 64;" xml:space="preserve">
<style type="text/css">
	.st0{clip-path:url(#SVGID_2_);}
	.st1{fill:#FFFFFF;}
</style>
<g>
	<defs>
		<rect id="SVGID_1_" x="16" y="-16" width="64" height="64"/>
	</defs>
	<clipPath id="SVGID_2_">
		<use xlink:href="#SVGID_1_"  style="overflow:visible;"/>
	</clipPath>
	<g class="st0">
		<path class="st1" d="M34.4,30c-0.3,0-0.5-0.1-0.8-0.2c-0.2-0.2-0.4-0.4-0.5-0.7C33,28.8,33,28.5,33,28.3c0.1-0.3,0.2-0.5,0.4-0.7
			L44.8,17c0.1-0.1,0.3-0.3,0.3-0.5c0.1-0.2,0.1-0.4,0.1-0.6s0-0.4-0.1-0.6c-0.1-0.2-0.2-0.3-0.3-0.5L33.5,4.4
			c-0.1-0.1-0.2-0.3-0.3-0.4C33.1,3.8,33,3.7,33,3.5c0-0.4,0.1-0.7,0.3-1C33.6,2.2,33.9,2,34.3,2c0.4,0,0.7,0.1,1,0.4l11.4,10.5
			c0.4,0.4,0.8,0.9,1,1.4S48,15.4,48,16c0,0.6-0.1,1.2-0.4,1.7c-0.2,0.5-0.6,1-1,1.4L35.3,29.6C35,29.9,34.7,30,34.4,30z"/>
		<path class="st1" d="M51.4,30c-0.3,0-0.5-0.1-0.8-0.2c-0.2-0.2-0.4-0.4-0.5-0.7C50,28.8,50,28.5,50,28.3c0.1-0.3,0.2-0.5,0.4-0.7
			L61.8,17c0.1-0.1,0.3-0.3,0.3-0.5c0.1-0.2,0.1-0.4,0.1-0.6s0-0.4-0.1-0.6c-0.1-0.2-0.2-0.3-0.3-0.5L50.5,4.4
			c-0.1-0.1-0.2-0.3-0.3-0.4C50.1,3.8,50,3.7,50,3.5c0-0.2,0-0.4,0.1-0.5c0.1-0.2,0.2-0.3,0.3-0.5c0.1-0.1,0.3-0.2,0.4-0.3
			C50.9,2.1,51.1,2,51.3,2c0.2,0,0.4,0,0.5,0.1c0.2,0.1,0.3,0.2,0.5,0.3l11.4,10.5c0.4,0.4,0.8,0.9,1,1.4S65,15.4,65,16
			c0,0.6-0.1,1.2-0.4,1.7c-0.2,0.5-0.6,1-1,1.4L52.3,29.6C52,29.9,51.7,30,51.4,30z"/>
	</g>
</g>
</svg>
