<svg width="48" height="48" viewBox="0 0 48 48" fill="none" xmlns="http://www.w3.org/2000/svg">
<g clip-path="url(#clip0_51772_21392)">
<path d="M29.8352 46.5003C29.5437 46.4999 29.2587 46.4145 29.0149 46.2547C28.7712 46.0949 28.5793 45.8675 28.4627 45.6003L23.8127 35.1003C23.6546 34.7364 23.6471 34.3247 23.7919 33.9553C23.9367 33.5859 24.2219 33.2889 24.5852 33.1293C24.9489 32.9712 25.3605 32.9635 25.7298 33.108C26.0992 33.2524 26.3963 33.5373 26.5562 33.9003L31.2062 44.4003C31.3057 44.6283 31.3469 44.8775 31.3262 45.1253C31.3055 45.3732 31.2234 45.6121 31.0874 45.8203C30.9515 46.0286 30.7658 46.1998 30.5472 46.3185C30.3286 46.4372 30.0839 46.4997 29.8352 46.5003Z" fill="#00688E"/>
<path d="M12.7725 1.51078C13.2688 1.50851 13.7607 1.60479 14.2195 1.79405C14.6784 1.9833 15.0951 2.26176 15.4455 2.61328L40.1355 27.2733L40.1565 27.2943C40.769 27.923 41.148 28.7424 41.2305 29.6163C41.3115 30.613 40.9971 31.6016 40.3552 32.3684C39.7133 33.1352 38.7954 33.6187 37.8 33.7143L25.7025 34.8093H25.671C25.533 34.8209 25.4014 34.8731 25.293 34.9593L15.093 42.8898C14.4313 43.4132 13.6117 43.6966 12.768 43.6938C11.7682 43.6894 10.8107 43.2896 10.1047 42.5816C9.39873 41.8737 9.00158 40.9151 9 39.9153V5.28028C9.00139 4.2817 9.39646 3.32394 10.0995 2.61478C10.4498 2.26299 10.8664 1.98425 11.3253 1.79474C11.7841 1.60522 12.2761 1.50871 12.7725 1.51078ZM38.0025 29.3838L13.3245 4.73728C13.217 4.62745 13.0791 4.55219 12.9286 4.52113C12.7781 4.49007 12.6217 4.50463 12.4795 4.56293C12.3372 4.62123 12.2157 4.72064 12.1302 4.84843C12.0448 4.97622 11.9995 5.12658 12 5.28028V39.9153C12.0004 40.122 12.0827 40.3202 12.2289 40.4664C12.3751 40.6126 12.5733 40.6949 12.78 40.6953C12.9427 40.6977 13.1013 40.6448 13.23 40.5453L13.251 40.5288L23.451 32.5938C24.0257 32.1424 24.7218 31.8724 25.4505 31.8183L37.527 30.7248C37.7338 30.7035 37.924 30.6021 38.0569 30.4423C38.1898 30.2825 38.2548 30.077 38.238 29.8698C38.2154 29.6862 38.1325 29.5153 38.0025 29.3838Z" fill="#00688E"/>
</g>
<defs>
<clipPath id="clip0_51772_21392">
<rect width="48" height="48" fill="white"/>
</clipPath>
</defs>
</svg>
