<svg width="48" height="48" viewBox="0 0 48 48" fill="none" xmlns="http://www.w3.org/2000/svg">
<g clip-path="url(#clip0_51772_21404)">
<path d="M40.8 46.5H7.2C5.68827 46.5 4.23845 45.8995 3.16949 44.8305C2.10053 43.7615 1.5 42.3117 1.5 40.8V7.2C1.5 5.68827 2.10053 4.23845 3.16949 3.16949C4.23845 2.10053 5.68827 1.5 7.2 1.5H25.5C25.8978 1.5 26.2794 1.65804 26.5607 1.93934C26.842 2.22064 27 2.60218 27 3C27 3.39782 26.842 3.77936 26.5607 4.06066C26.2794 4.34196 25.8978 4.5 25.5 4.5H7.2C6.84543 4.5 6.49433 4.56984 6.16675 4.70553C5.83918 4.84121 5.54153 5.04009 5.29081 5.29081C5.04009 5.54153 4.84121 5.83918 4.70553 6.16675C4.56984 6.49433 4.5 6.84543 4.5 7.2V40.8C4.5 41.1546 4.56984 41.5057 4.70553 41.8332C4.84121 42.1608 5.04009 42.4585 5.29081 42.7092C5.54153 42.9599 5.83918 43.1588 6.16675 43.2945C6.49433 43.4302 6.84543 43.5 7.2 43.5H40.8C41.5161 43.5 42.2028 43.2155 42.7092 42.7092C43.2155 42.2028 43.5 41.5161 43.5 40.8V22.5C43.5 22.1022 43.658 21.7206 43.9393 21.4393C44.2206 21.158 44.6022 21 45 21C45.3978 21 45.7794 21.158 46.0607 21.4393C46.342 21.7206 46.5 22.1022 46.5 22.5V40.8C46.5 42.3117 45.8995 43.7615 44.8305 44.8305C43.7615 45.8995 42.3117 46.5 40.8 46.5Z" fill="#00688E"/>
<path d="M36.0001 1.86331C36.7878 1.86098 37.5682 2.01489 38.2961 2.31613C39.0239 2.61737 39.6849 3.05997 40.2406 3.61831L44.3806 7.75831C45.5045 8.88335 46.1358 10.4086 46.1358 11.9988C46.1358 13.5891 45.5045 15.1143 44.3806 16.2393L25.9906 34.6293C25.1756 35.4484 24.1281 35.9968 22.9906 36.1998L13.1326 37.9398C12.9805 37.9664 12.8264 37.98 12.6721 37.9803C12.2854 37.9807 11.9033 37.8967 11.5524 37.7342C11.2016 37.5716 10.8905 37.3344 10.6408 37.0392C10.3911 36.7439 10.2089 36.3977 10.1068 36.0248C10.0048 35.6518 9.98544 35.261 10.0501 34.8798V34.8708L11.7901 25.0158C11.9937 23.8782 12.5425 22.8307 13.3621 22.0158L31.7521 3.62581C32.308 3.06521 32.9699 2.62072 33.6991 2.31815C34.4284 2.01557 35.2105 1.86097 36.0001 1.86331ZM13.0981 34.9023L22.4641 33.2523C22.9972 33.1564 23.4879 32.8988 23.8696 32.5143L42.2596 14.1243C42.8211 13.5618 43.1364 12.7996 43.1364 12.0048C43.1364 11.2101 42.8211 10.4478 42.2596 9.88531L38.1196 5.74531C37.5571 5.18381 36.7948 4.86845 36.0001 4.86845C35.2053 4.86845 34.443 5.18381 33.8806 5.74531L15.4906 24.1353C15.1052 24.5177 14.847 25.0095 14.7511 25.5438L13.0981 34.9023Z" fill="#00688E"/>
<path d="M38.9997 19.4997C38.6019 19.4996 38.2204 19.3415 37.9392 19.0602L28.9392 10.0602C28.658 9.77889 28.5 9.39743 28.5 8.99968C28.5 8.60193 28.658 8.22047 28.9392 7.93918C29.2205 7.65797 29.6019 7.5 29.9997 7.5C30.3974 7.5 30.7789 7.65797 31.0602 7.93918L40.0602 16.9392C40.2699 17.149 40.4127 17.4162 40.4706 17.7071C40.5284 17.9981 40.4987 18.2996 40.3852 18.5737C40.2717 18.8477 40.0795 19.082 39.8329 19.2468C39.5863 19.4116 39.2963 19.4996 38.9997 19.4997Z" fill="#00688E"/>
</g>
<defs>
<clipPath id="clip0_51772_21404">
<rect width="48" height="48" fill="white"/>
</clipPath>
</defs>
</svg>
