<svg width="48" height="48" viewBox="0 0 48 48" fill="none" xmlns="http://www.w3.org/2000/svg">
<g clip-path="url(#clip0_51772_21411)">
<path d="M24 9C25.78 9 27.5201 9.52784 29.0001 10.5168C30.4802 11.5057 31.6337 12.9113 32.3149 14.5558C32.9961 16.2004 33.1743 18.01 32.8271 19.7558C32.4798 21.5016 31.6226 23.1053 30.364 24.364C29.1053 25.6226 27.5016 26.4798 25.7558 26.8271C24.01 27.1743 22.2004 26.9961 20.5558 26.3149C18.9113 25.6337 17.5057 24.4802 16.5168 23.0001C15.5278 21.5201 15 19.78 15 18C15.0028 15.6139 15.9519 13.3263 17.6391 11.6391C19.3263 9.95188 21.6139 9.00278 24 9ZM24 24C25.1867 24 26.3467 23.6481 27.3334 22.9888C28.3201 22.3295 29.0892 21.3925 29.5433 20.2961C29.9974 19.1997 30.1162 17.9933 29.8847 16.8295C29.6532 15.6656 29.0818 14.5965 28.2426 13.7574C27.4035 12.9182 26.3344 12.3468 25.1705 12.1153C24.0067 11.8838 22.8003 12.0026 21.7039 12.4567C20.6075 12.9108 19.6705 13.6799 19.0112 14.6666C18.3519 15.6533 18 16.8133 18 18C18 19.5913 18.6321 21.1174 19.7574 22.2426C20.8826 23.3679 22.4087 24 24 24Z" fill="#00688E"/>
<path d="M36 41.3399H33V39.8399C33 35.6054 28.962 32.1599 24 32.1599C19.038 32.1599 15 35.6099 15 39.8399V41.3399H12V39.8399C12 33.9509 17.3835 29.1599 24 29.1599C27.0793 29.128 30.0659 30.2124 32.4075 32.2124C33.5225 33.1481 34.4212 34.3147 35.0415 35.6316C35.6617 36.9484 35.9887 38.3843 36 39.8399V41.3399Z" fill="#00688E"/>
<path d="M23.9999 1.50009C28.4501 1.49985 32.8005 2.81933 36.5008 5.29164C40.2011 7.76396 43.0852 11.2781 44.7883 15.3896C46.4914 19.501 46.9369 24.0252 46.0687 28.39C45.2004 32.7547 43.0573 36.7639 39.9104 39.9106C37.821 42 35.3405 43.6574 32.6106 44.7882C29.8806 45.9189 26.9547 46.5009 23.9999 46.5009C21.045 46.5009 18.1191 45.9189 15.3892 44.7882C12.6592 43.6574 10.1788 42 8.08937 39.9106C5.99997 37.8212 4.34257 35.3407 3.2118 32.6108C2.08102 29.8809 1.49902 26.9549 1.49902 24.0001C1.49902 21.0452 2.08102 18.1193 3.2118 15.3894C4.34257 12.6595 5.99997 10.179 8.08937 8.08959C10.1739 5.99363 12.6534 4.332 15.3845 3.2009C18.1155 2.06981 21.0439 1.49171 23.9999 1.50009ZM23.9999 43.5001C27.8566 43.5001 31.6267 42.3564 34.8335 40.2137C38.0402 38.0711 40.5396 35.0256 42.0155 31.4624C43.4914 27.8993 43.8776 23.9785 43.1252 20.1958C42.3728 16.4132 40.5156 12.9386 37.7885 10.2115C35.0613 7.48438 31.5868 5.62719 27.8041 4.87478C24.0215 4.12237 20.1007 4.50853 16.5375 5.98444C12.9744 7.46035 9.9289 9.95971 7.78621 13.1665C5.64352 16.3732 4.49987 20.1434 4.49987 24.0001C4.50582 29.17 6.56219 34.1264 10.2179 37.7821C13.8735 41.4378 18.83 43.4941 23.9999 43.5001Z" fill="#00688E"/>
</g>
<defs>
<clipPath id="clip0_51772_21411">
<rect width="48" height="48" fill="white"/>
</clipPath>
</defs>
</svg>
