<svg width="64" height="64" viewBox="0 0 64 64" fill="none" xmlns="http://www.w3.org/2000/svg">
<g clip-path="url(#clip0_51965_8326)">
<path d="M32 47.016C31.0836 47.0295 30.1809 46.7932 29.3888 46.3323C28.5966 45.8714 27.9451 45.2034 27.504 44.4L18.304 26.488C17.4557 24.8395 17.0089 23.0139 17 21.16V4C17 3.20435 17.3161 2.44129 17.8787 1.87868C18.4413 1.31607 19.2044 1 20 1C20.7956 1 21.5587 1.31607 22.1213 1.87868C22.6839 2.44129 23 3.20435 23 4V21.16C23.0035 22.066 23.2215 22.9584 23.636 23.764L32 40L40.372 23.728C40.7806 22.9477 40.996 22.0808 41 21.2V4C41 3.20435 41.3161 2.44129 41.8787 1.87868C42.4413 1.31607 43.2043 1 44 1C44.7956 1 45.5587 1.31607 46.1213 1.87868C46.6839 2.44129 47 3.20435 47 4V21.2C47.001 23.044 46.5564 24.8609 45.704 26.496L36.504 44.364C35.936 45.4806 34.9497 46.3274 33.76 46.72C33.1937 46.9151 32.599 47.0151 32 47.016Z" fill="#454545"/>
<path d="M31.98 63.0002C30.8735 62.9981 29.7854 62.7169 28.8163 62.1827C27.8473 61.6486 27.0286 60.8787 26.436 59.9442L23.548 55.4122C22.7143 54.0745 21.5557 52.9695 20.18 52.2001C18.8043 51.4308 17.2562 51.0221 15.68 51.0122H4C3.20435 51.0122 2.44129 50.6961 1.87868 50.1335C1.31607 49.5709 1 48.8079 1 48.0122C1 47.2166 1.31607 46.4535 1.87868 45.8909C2.44129 45.3283 3.20435 45.0122 4 45.0122H15.68C18.2677 45.0221 20.8107 45.6877 23.0715 46.9468C25.3323 48.2059 27.2371 50.0174 28.608 52.2122L31.488 56.7322C31.5368 56.8192 31.6075 56.8919 31.6931 56.9431C31.7787 56.9944 31.8763 57.0223 31.976 57.0242C32.0782 57.0221 32.178 56.9929 32.2652 56.9394C32.3524 56.886 32.4237 56.8103 32.472 56.7202L35.344 52.2122C36.7153 50.0169 38.6207 48.205 40.8822 46.9459C43.1438 45.6867 45.6876 45.0215 48.276 45.0122H60C60.7956 45.0122 61.5587 45.3283 62.1213 45.8909C62.6839 46.4535 63 47.2166 63 48.0122C63 48.8079 62.6839 49.5709 62.1213 50.1335C61.5587 50.6961 60.7956 51.0122 60 51.0122H48.28C46.7031 51.0215 45.1543 51.4298 43.7778 52.1992C42.4013 52.9685 41.242 54.0739 40.408 55.4122L37.528 59.9322C36.9362 60.8692 36.1174 61.6416 35.1476 62.1779C34.1778 62.7143 33.0882 62.9971 31.98 63.0002Z" fill="#454545"/>
</g>
<defs>
<clipPath id="clip0_51965_8326">
<rect width="64" height="64" rx="8" fill="white"/>
</clipPath>
</defs>
</svg>
