<svg width="64" height="64" viewBox="0 0 64 64" fill="none" xmlns="http://www.w3.org/2000/svg">
<g clip-path="url(#clip0_51965_8323)">
<path d="M31.8 63H31.776C31.2582 62.9958 30.7503 62.8577 30.3017 62.5991C29.8531 62.3404 29.479 61.97 29.216 61.524L18.288 43H4C3.20435 43 2.44129 42.6839 1.87868 42.1213C1.31607 41.5587 1 40.7956 1 40C1 39.2044 1.31607 38.4413 1.87868 37.8787C2.44129 37.3161 3.20435 37 4 37H20C20.5219 37 21.0347 37.1362 21.4879 37.395C21.9411 37.6539 22.3189 38.0265 22.584 38.476L31.844 54.168L41.444 38.436C41.7116 37.998 42.0871 37.6359 42.5346 37.3845C42.9822 37.1331 43.4867 37.0007 44 37H60C60.7956 37 61.5587 37.3161 62.1213 37.8787C62.6839 38.4413 63 39.2044 63 40C63 40.7956 62.6839 41.5587 62.1213 42.1213C61.5587 42.6839 60.7956 43 60 43H45.684L34.36 61.564C34.092 62.0026 33.7159 62.365 33.2676 62.6165C32.8193 62.8679 32.314 63 31.8 63Z" fill="#454545"/>
<path d="M32 46.708L17 16.708V4C17 3.20435 17.3161 2.44129 17.8787 1.87868C18.4413 1.31607 19.2044 1 20 1C20.7956 1 21.5587 1.31607 22.1213 1.87868C22.6839 2.44129 23 3.20435 23 4V15.292L32 33.292L41 15.292V4C41 3.20435 41.3161 2.44129 41.8787 1.87868C42.4413 1.31607 43.2044 1 44 1C44.7956 1 45.5587 1.31607 46.1213 1.87868C46.6839 2.44129 47 3.20435 47 4V16.708L32 46.708Z" fill="#454545"/>
</g>
<defs>
<clipPath id="clip0_51965_8323">
<rect width="64" height="64" rx="8" fill="white"/>
</clipPath>
</defs>
</svg>
