<svg width="64" height="64" viewBox="0 0 64 64" fill="none" xmlns="http://www.w3.org/2000/svg">
<g clip-path="url(#clip0_51965_8317)">
<path d="M32 51C28.0231 50.9958 24.2102 49.4141 21.3981 46.6019C18.5859 43.7898 17.0042 39.9769 17 36V8C17 7.20435 17.3161 6.44129 17.8787 5.87868C18.4413 5.31607 19.2044 5 20 5C20.7956 5 21.5587 5.31607 22.1213 5.87868C22.6839 6.44129 23 7.20435 23 8V36C23 38.3869 23.9482 40.6761 25.636 42.364C27.3239 44.0518 29.6131 45 32 45C34.3869 45 36.6761 44.0518 38.364 42.364C40.0518 40.6761 41 38.3869 41 36V8C41 7.20435 41.3161 6.44129 41.8787 5.87868C42.4413 5.31607 43.2044 5 44 5C44.7956 5 45.5587 5.31607 46.1213 5.87868C46.6839 6.44129 47 7.20435 47 8V36C46.9958 39.9769 45.4141 43.7898 42.6019 46.6019C39.7898 49.4141 35.9769 50.9958 32 51Z" fill="#454545"/>
<path d="M32 63C25.3605 62.992 18.9561 60.5415 14.0071 56.1155C9.05807 51.6895 5.91044 45.5974 5.164 39H4C3.20435 39 2.44129 38.6839 1.87868 38.1213C1.31607 37.5587 1 36.7956 1 36C1 35.2044 1.31607 34.4413 1.87868 33.8787C2.44129 33.3161 3.20435 33 4 33H8C8.79565 33 9.55871 33.3161 10.1213 33.8787C10.6839 34.4413 11 35.2044 11 36C11 41.5695 13.2125 46.911 17.1508 50.8492C21.089 54.7875 26.4305 57 32 57C37.5695 57 42.911 54.7875 46.8492 50.8492C50.7875 46.911 53 41.5695 53 36C53 35.2044 53.3161 34.4413 53.8787 33.8787C54.4413 33.3161 55.2044 33 56 33H60C60.7956 33 61.5587 33.3161 62.1213 33.8787C62.6839 34.4413 63 35.2044 63 36C63 36.7956 62.6839 37.5587 62.1213 38.1213C61.5587 38.6839 60.7956 39 60 39H58.836C58.0896 45.5974 54.9419 51.6895 49.9929 56.1155C45.0439 60.5415 38.6395 62.992 32 63Z" fill="#454545"/>
</g>
<defs>
<clipPath id="clip0_51965_8317">
<rect width="64" height="64" rx="8" fill="white"/>
</clipPath>
</defs>
</svg>
