<svg width="64" height="64" viewBox="0 0 64 64" fill="none" xmlns="http://www.w3.org/2000/svg">
<g clip-path="url(#clip0_51965_8320)">
<path d="M32 63H4C3.20435 63 2.44129 62.6839 1.87868 62.1213C1.31607 61.5587 1 60.7956 1 60C1 59.2044 1.31607 58.4413 1.87868 57.8787C2.44129 57.3161 3.20435 57 4 57H32C32.7956 57 33.5587 57.3161 34.1213 57.8787C34.6839 58.4413 35 59.2044 35 60C35 60.7956 34.6839 61.5587 34.1213 62.1213C33.5587 62.6839 32.7956 63 32 63Z" fill="#454545"/>
<path d="M49.9997 25.3441C45.7124 25.3469 41.5463 23.9212 38.1597 21.2921C37.5518 20.7977 37.1615 20.085 37.0723 19.3065C36.983 18.5281 37.2019 17.7456 37.6821 17.1264C38.1623 16.5072 38.8657 16.1004 39.6419 15.9931C40.4181 15.8858 41.2055 16.0865 41.8357 16.5521C44.1705 18.3643 47.0421 19.3479 49.9977 19.3479C52.9533 19.3479 55.8248 18.3643 58.1597 16.5521C58.7899 16.0865 59.5772 15.8858 60.3534 15.9931C61.1296 16.1004 61.833 16.5072 62.3133 17.1264C62.7935 17.7456 63.0123 18.5281 62.9231 19.3065C62.8338 20.085 62.4436 20.7977 61.8357 21.2921C58.4501 23.9203 54.2856 25.346 49.9997 25.3441Z" fill="#454545"/>
<path d="M50.02 63C48.9449 63.0063 47.8834 62.7597 46.9211 62.2803C45.9588 61.8009 45.1226 61.102 44.48 60.24L39 52.916V52.892C37.7323 51.1887 37.0452 49.1233 37.04 47V12C37.0432 9.08359 38.2032 6.28755 40.2654 4.22533C42.3276 2.16312 45.1236 1.00318 48.04 1H52.04C54.9564 1.00318 57.7525 2.16312 59.8147 4.22533C61.8769 6.28755 63.0369 9.08359 63.04 12V47C63.0447 49.1384 62.3539 51.2204 61.072 52.932C60.9875 53.0436 60.8953 53.1492 60.796 53.248L55.56 60.236C54.9177 61.0985 54.0817 61.798 53.1194 62.2781C52.1571 62.7582 51.0954 63.0055 50.02 63ZM43.812 49.336L49.28 56.644C49.368 56.7563 49.4803 56.847 49.6085 56.9095C49.7367 56.9719 49.8774 57.0043 50.02 57.0043C50.1626 57.0043 50.3034 56.9719 50.4316 56.9095C50.5598 56.847 50.6721 56.7563 50.76 56.644L56.24 49.328C56.3096 49.2358 56.3844 49.1476 56.464 49.064C56.843 48.4452 57.0437 47.7337 57.044 47.008V12C57.043 10.6742 56.5159 9.40309 55.5784 8.46564C54.641 7.52818 53.3698 7.00106 52.044 7H48.044C46.7176 7 45.4454 7.52666 44.5071 8.46422C43.5688 9.40179 43.0411 10.6735 43.04 12V47C43.042 47.841 43.3125 48.6594 43.812 49.336Z" fill="#454545"/>
</g>
<defs>
<clipPath id="clip0_51965_8320">
<rect width="64" height="64" rx="8" fill="white"/>
</clipPath>
</defs>
</svg>
