<svg width="64" height="64" viewBox="0 0 64 64" fill="none" xmlns="http://www.w3.org/2000/svg">
<g clip-path="url(#clip0_51965_8332)">
<path d="M50 29C47.4289 29 44.9154 28.2376 42.7776 26.8091C40.6398 25.3807 38.9735 23.3503 37.9896 20.9749C37.0056 18.5995 36.7482 15.9856 37.2498 13.4638C37.7514 10.9421 38.9895 8.6257 40.8076 6.80762C42.6257 4.98953 44.9421 3.75141 47.4638 3.2498C49.9856 2.74819 52.5995 3.00563 54.9749 3.98957C57.3503 4.97351 59.3807 6.63975 60.8091 8.77759C62.2376 10.9154 63 13.4288 63 16C62.9958 19.4465 61.6248 22.7507 59.1877 25.1877C56.7507 27.6248 53.4465 28.9958 50 29ZM50 9.00001C48.6155 9.00001 47.2622 9.41055 46.111 10.1797C44.9599 10.9489 44.0627 12.0421 43.5329 13.3212C43.003 14.6003 42.8644 16.0078 43.1345 17.3656C43.4046 18.7235 44.0713 19.9708 45.0503 20.9498C46.0292 21.9287 47.2765 22.5954 48.6344 22.8655C49.9922 23.1356 51.3997 22.997 52.6788 22.4672C53.9579 21.9373 55.0511 21.0401 55.8203 19.889C56.5895 18.7379 57 17.3845 57 16C56.9979 14.1441 56.2597 12.3649 54.9474 11.0526C53.6351 9.7403 51.8559 9.00212 50 9.00001Z" fill="#454545"/>
<path d="M11.9997 60.9999C11.4164 61 10.8457 60.8301 10.3574 60.5109C9.86917 60.1917 9.48458 59.7371 9.2507 59.2027C9.01683 58.6683 8.94382 58.0773 9.04061 57.5021C9.13741 56.9269 9.3998 56.3923 9.79569 55.9639L39.7957 23.4839C40.3444 22.9371 41.0834 22.6237 41.8579 22.6094C42.6324 22.5951 43.3824 22.8809 43.951 23.4071C44.5195 23.9333 44.8625 24.6589 44.9081 25.4323C44.9537 26.2056 44.6984 26.9665 44.1957 27.5559L14.1957 60.0359C13.9159 60.3394 13.5764 60.5816 13.1985 60.7475C12.8206 60.9134 12.4124 60.9994 11.9997 60.9999Z" fill="#454545"/>
<path d="M14 29C11.4288 29 8.91543 28.2376 6.77759 26.8091C4.63975 25.3807 2.97351 23.3503 1.98957 20.9749C1.00563 18.5995 0.748189 15.9856 1.2498 13.4638C1.75141 10.9421 2.98953 8.6257 4.80762 6.80762C6.6257 4.98953 8.94208 3.75141 11.4638 3.2498C13.9856 2.74819 16.5995 3.00563 18.9749 3.98957C21.3503 4.97351 23.3807 6.63975 24.8091 8.77759C26.2376 10.9154 27 13.4288 27 16C26.9958 19.4465 25.6248 22.7507 23.1877 25.1877C20.7507 27.6248 17.4465 28.9958 14 29ZM14 9.00001C12.6155 9.00001 11.2622 9.41055 10.111 10.1797C8.95987 10.9489 8.06266 12.0421 7.53285 13.3212C7.00304 14.6003 6.86441 16.0078 7.13451 17.3656C7.40461 18.7235 8.07129 19.9708 9.05026 20.9498C10.0292 21.9287 11.2765 22.5954 12.6344 22.8655C13.9922 23.1356 15.3997 22.997 16.6788 22.4672C17.9579 21.9373 19.0511 21.0401 19.8203 19.889C20.5895 18.7379 21 17.3845 21 16C20.9979 14.1441 20.2597 12.3649 18.9474 11.0526C17.6351 9.7403 15.8559 9.00212 14 9.00001Z" fill="#454545"/>
<path d="M51.9998 60.9999C51.5857 61.0005 51.176 60.9151 50.7966 60.7491C50.4172 60.5832 50.0764 60.3403 49.7958 60.0359L19.7958 27.5559C19.293 26.9665 19.0377 26.2056 19.0833 25.4323C19.1289 24.6589 19.4719 23.9333 20.0405 23.4071C20.609 22.8809 21.359 22.5951 22.1336 22.6094C22.9081 22.6237 23.6471 22.9371 24.1958 23.4839L54.1958 55.9639C54.5912 56.3918 54.8534 56.9256 54.9505 57.5001C55.0476 58.0746 54.9752 58.665 54.7424 59.199C54.5095 59.7331 54.1261 60.1878 53.6391 60.5076C53.152 60.8274 52.5824 60.9985 51.9998 60.9999Z" fill="#454545"/>
</g>
<defs>
<clipPath id="clip0_51965_8332">
<rect width="64" height="64" rx="8" fill="white"/>
</clipPath>
</defs>
</svg>
