<svg width="64" height="64" viewBox="0 0 64 64" fill="none" xmlns="http://www.w3.org/2000/svg">
<g clip-path="url(#clip0_51965_8329)">
<path d="M46 25C43.8244 25 41.6977 24.3549 39.8887 23.1462C38.0798 21.9375 36.6699 20.2195 35.8373 18.2095C35.0048 16.1995 34.7869 13.9878 35.2114 11.854C35.6358 9.72022 36.6835 7.76021 38.2218 6.22183C39.7602 4.68345 41.7202 3.6358 43.854 3.21137C45.9878 2.78693 48.1995 3.00477 50.2095 3.83733C52.2195 4.66989 53.9375 6.07979 55.1462 7.88873C56.3549 9.69767 57 11.8244 57 14C56.9968 16.9164 55.8369 19.7125 53.7747 21.7747C51.7125 23.8369 48.9164 24.9968 46 25ZM46 9C45.0111 9 44.0444 9.29325 43.2222 9.84266C42.3999 10.3921 41.759 11.173 41.3806 12.0866C41.0022 13.0002 40.9032 14.0056 41.0961 14.9755C41.289 15.9454 41.7652 16.8363 42.4645 17.5355C43.1637 18.2348 44.0546 18.711 45.0246 18.9039C45.9945 19.0969 46.9998 18.9978 47.9134 18.6194C48.8271 18.241 49.6079 17.6001 50.1574 16.7779C50.7068 15.9556 51 14.9889 51 14C50.9989 12.6742 50.4718 11.4031 49.5344 10.4656C48.5969 9.52819 47.3258 9.00106 46 9Z" fill="#454545"/>
<path d="M15.9997 50.9999C15.4164 51 14.8457 50.8301 14.3574 50.5109C13.8692 50.1917 13.4846 49.7371 13.2507 49.2027C13.0168 48.6683 12.9438 48.0773 13.0406 47.5021C13.1374 46.9269 13.3998 46.3923 13.7957 45.9639L37.7957 19.9639C38.3459 19.4259 39.0817 19.1199 39.8511 19.1092C40.6205 19.0984 41.3647 19.3837 41.9297 19.9061C42.4947 20.4285 42.8374 21.148 42.8869 21.9159C42.9364 22.6837 42.6889 23.4413 42.1957 24.0319L18.1957 50.0319C17.9163 50.3361 17.5769 50.5791 17.199 50.7457C16.8211 50.9123 16.4127 50.9989 15.9997 50.9999Z" fill="#454545"/>
<path d="M18 25C15.8244 25 13.6977 24.3549 11.8887 23.1462C10.0798 21.9375 8.66989 20.2195 7.83733 18.2095C7.00477 16.1995 6.78693 13.9878 7.21137 11.854C7.6358 9.72022 8.68345 7.76021 10.2218 6.22183C11.7602 4.68345 13.7202 3.6358 15.854 3.21137C17.9878 2.78693 20.1995 3.00477 22.2095 3.83733C24.2195 4.66989 25.9375 6.07979 27.1462 7.88873C28.3549 9.69767 29 11.8244 29 14C28.9968 16.9164 27.8369 19.7125 25.7747 21.7747C23.7125 23.8369 20.9164 24.9968 18 25ZM18 9C17.0111 9 16.0444 9.29325 15.2222 9.84266C14.3999 10.3921 13.759 11.173 13.3806 12.0866C13.0022 13.0002 12.9032 14.0056 13.0961 14.9755C13.289 15.9454 13.7652 16.8363 14.4645 17.5355C15.1637 18.2348 16.0546 18.711 17.0246 18.9039C17.9945 19.0969 18.9998 18.9978 19.9134 18.6194C20.8271 18.241 21.6079 17.6001 22.1574 16.7779C22.7068 15.9556 23 14.9889 23 14C22.9989 12.6742 22.4718 11.4031 21.5344 10.4656C20.5969 9.52819 19.3258 9.00106 18 9Z" fill="#454545"/>
<path d="M48 50.9998C47.586 51.0004 47.1763 50.915 46.7969 50.7491C46.4175 50.5831 46.0767 50.3403 45.796 50.0358L21.796 24.0358C21.3028 23.4452 21.0553 22.6877 21.1049 21.9198C21.1544 21.1519 21.497 20.4324 22.0621 19.91C22.6271 19.3876 23.3712 19.1023 24.1406 19.1131C24.91 19.1238 25.6459 19.4298 26.196 19.9678L50.196 45.9678C50.5902 46.3959 50.8513 46.9293 50.9476 47.5032C51.044 48.077 50.9713 48.6665 50.7386 49.1998C50.5059 49.7331 50.1231 50.1872 49.6368 50.5068C49.1506 50.8264 48.5819 50.9977 48 50.9998Z" fill="#454545"/>
<path d="M16 63H8C7.20435 63 6.44129 62.6839 5.87868 62.1213C5.31607 61.5587 5 60.7956 5 60C5 59.2044 5.31607 58.4413 5.87868 57.8787C6.44129 57.3161 7.20435 57 8 57H16C16.7956 57 17.5587 57.3161 18.1213 57.8787C18.6839 58.4413 19 59.2044 19 60C19 60.7956 18.6839 61.5587 18.1213 62.1213C17.5587 62.6839 16.7956 63 16 63Z" fill="#454545"/>
<path d="M56 63H48C47.2044 63 46.4413 62.6839 45.8787 62.1213C45.3161 61.5587 45 60.7956 45 60C45 59.2044 45.3161 58.4413 45.8787 57.8787C46.4413 57.3161 47.2044 57 48 57H56C56.7956 57 57.5587 57.3161 58.1213 57.8787C58.6839 58.4413 59 59.2044 59 60C59 60.7956 58.6839 61.5587 58.1213 62.1213C57.5587 62.6839 56.7956 63 56 63Z" fill="#454545"/>
<path d="M36 63H28C27.2044 63 26.4413 62.6839 25.8787 62.1213C25.3161 61.5587 25 60.7956 25 60C25 59.2044 25.3161 58.4413 25.8787 57.8787C26.4413 57.3161 27.2044 57 28 57H36C36.7956 57 37.5587 57.3161 38.1213 57.8787C38.6839 58.4413 39 59.2044 39 60C39 60.7956 38.6839 61.5587 38.1213 62.1213C37.5587 62.6839 36.7956 63 36 63Z" fill="#454545"/>
</g>
<defs>
<clipPath id="clip0_51965_8329">
<rect width="64" height="64" rx="8" fill="white"/>
</clipPath>
</defs>
</svg>
