<?xml version="1.0" encoding="utf-8"?>
<!-- Generator: Adobe Illustrator 19.0.0, SVG Export Plug-In . SVG Version: 6.00 Build 0)  -->
<svg version="1.1" id="Layer_1" xmlns="http://www.w3.org/2000/svg" xmlns:xlink="http://www.w3.org/1999/xlink" x="0px" y="0px"
	 viewBox="-279 371 52 52" style="enable-background:new -279 371 52 52;" xml:space="preserve">
<style type="text/css">
	.st0{fill:#027CA9;}
</style>
<g>
	<path class="st0" d="M-239.5,419.2c-0.9,0.4-1.9,0.1-2.5-0.8c-0.6-0.9-0.3-2.2,0.6-2.8c2.8-1.8,5.2-4.1,6.9-6.9
		c0.6-0.9,1.8-1.2,2.8-0.6c0.9,0.6,1.2,1.8,0.6,2.8c-2.1,3.3-4.9,6.2-8.2,8.2C-239.3,419.1-239.4,419.1-239.5,419.2z M-246.9,422.2
		c-0.1,0-0.2,0.1-0.3,0.1c-3.8,0.9-7.8,0.9-11.6,0c-1.1-0.2-1.7-1.3-1.5-2.4c0.2-1.1,1.3-1.7,2.4-1.5c3.3,0.8,6.6,0.8,9.8,0
		c1.1-0.2,2.2,0.4,2.4,1.5C-245.5,420.9-246,421.9-246.9,422.2z M-228.8,404.2c-0.4,0.2-0.8,0.2-1.2,0.1c-1.1-0.2-1.7-1.3-1.5-2.4
		c0.7-3.3,0.8-6.6,0-9.8c-0.2-1.1,0.4-2.1,1.5-2.4c1.1-0.2,2.2,0.4,2.4,1.5c0.9,3.8,0.9,7.8,0,11.6
		C-227.8,403.5-228.3,404-228.8,404.2z M-265,419.2c-0.6,0.2-1.3,0.2-1.8-0.2c-3.3-2.1-6.2-4.9-8.2-8.2c-0.6-0.9-0.3-2.2,0.6-2.8
		c0.9-0.6,2.2-0.3,2.8,0.6c1.8,2.8,4.1,5.2,6.9,6.9c0.9,0.6,1.2,1.8,0.6,2.8C-264.3,418.8-264.6,419-265,419.2z M-275.6,404.2
		c-0.1,0-0.2,0.1-0.3,0.1c-1.1,0.2-2.1-0.4-2.4-1.5c-0.9-3.8-0.9-7.8,0-11.6c0.2-1.1,1.3-1.7,2.4-1.5c1.1,0.2,1.7,1.3,1.5,2.4
		c-0.8,3.3-0.8,6.6,0,9.8C-274.2,402.9-274.7,403.8-275.6,404.2z M-231.9,386.1c-0.9,0.4-1.9,0.1-2.5-0.8c-1.8-2.8-4.1-5.2-6.9-6.9
		c-0.9-0.6-1.2-1.8-0.6-2.8c0.6-0.9,1.8-1.2,2.8-0.6c3.3,2.1,6.2,4.9,8.2,8.2c0.6,0.9,0.3,2.2-0.6,2.8
		C-231.7,386-231.8,386.1-231.9,386.1z M-272.6,386.1c-0.6,0.2-1.3,0.2-1.8-0.2c-0.9-0.6-1.2-1.8-0.6-2.8c2.1-3.3,4.9-6.1,8.2-8.2
		c0.9-0.6,2.2-0.3,2.8,0.6c0.6,0.9,0.3,2.2-0.6,2.8c-2.8,1.8-5.2,4.1-6.9,6.9C-271.9,385.7-272.2,385.9-272.6,386.1z M-246.9,375.5
		c-0.4,0.2-0.8,0.2-1.2,0.1c-3.3-0.8-6.6-0.8-9.8,0c-1.1,0.2-2.1-0.4-2.4-1.5c-0.2-1.1,0.4-2.1,1.5-2.4c3.8-0.9,7.8-0.9,11.6,0
		c1.1,0.2,1.7,1.3,1.5,2.4C-245.8,374.7-246.3,375.2-246.9,375.5z"/>
</g>
</svg>
