<?xml version="1.0" encoding="utf-8"?>
<!-- Generator: Adobe Illustrator 19.0.0, SVG Export Plug-In . SVG Version: 6.00 Build 0)  -->
<svg version="1.1" id="Layer_1" xmlns="http://www.w3.org/2000/svg" xmlns:xlink="http://www.w3.org/1999/xlink" x="0px" y="0px"
	 viewBox="10 -10 52 52" style="enable-background:new 10 -10 52 52;" xml:space="preserve">
<style type="text/css">
	.st0{fill:#05BD83;}
</style>
<g>
	<path class="st0" d="M49.4,38.2c-0.9,0.4-1.9,0.1-2.5-0.8s-0.3-2.2,0.6-2.8c2.8-1.8,5.2-4.1,6.9-6.9c0.6-0.9,1.8-1.2,2.8-0.6
		c0.9,0.6,1.2,1.8,0.6,2.8c-2.1,3.3-4.9,6.2-8.2,8.2C49.6,38.1,49.6,38.1,49.4,38.2z M42.1,41.2c-0.1,0-0.2,0.1-0.3,0.1
		c-3.8,0.9-7.8,0.9-11.6,0c-1.1-0.2-1.7-1.3-1.5-2.4s1.3-1.7,2.4-1.5c3.3,0.8,6.6,0.8,9.8,0c1.1-0.2,2.2,0.4,2.4,1.5
		C43.4,39.9,42.9,40.9,42.1,41.2z M60.1,23.2c-0.4,0.2-0.8,0.2-1.2,0.1c-1.1-0.2-1.7-1.3-1.5-2.4c0.7-3.3,0.8-6.6,0-9.8
		C57.3,10,57.8,9,58.9,8.7c1.1-0.2,2.2,0.4,2.4,1.5c0.9,3.8,0.9,7.8,0,11.6C61.1,22.5,60.6,23,60.1,23.2z M23.9,38.2
		c-0.6,0.2-1.3,0.2-1.8-0.2c-3.3-2.1-6.2-4.9-8.2-8.2c-0.6-0.9-0.3-2.2,0.6-2.8c0.9-0.6,2.2-0.3,2.8,0.6c1.8,2.8,4.1,5.2,6.9,6.9
		c0.9,0.6,1.2,1.8,0.6,2.8C24.7,37.8,24.3,38,23.9,38.2z M13.3,23.2c-0.1,0-0.2,0.1-0.3,0.1c-1.1,0.2-2.1-0.4-2.4-1.5
		c-0.9-3.8-0.9-7.8,0-11.6c0.2-1.1,1.3-1.7,2.4-1.5s1.7,1.3,1.5,2.4c-0.8,3.3-0.8,6.6,0,9.8C14.7,21.9,14.2,22.8,13.3,23.2z
		 M57.1,5.1c-0.9,0.4-1.9,0.1-2.5-0.8c-1.8-2.8-4.1-5.2-6.9-6.9c-0.9-0.6-1.2-1.8-0.6-2.8c0.6-0.9,1.8-1.2,2.8-0.6
		c3.3,2.1,6.2,4.9,8.2,8.2c0.6,0.9,0.3,2.2-0.6,2.8C57.3,5,57.1,5.1,57.1,5.1z M16.3,5.1c-0.6,0.2-1.3,0.2-1.8-0.2
		c-0.9-0.6-1.2-1.8-0.6-2.8c2.1-3.3,4.9-6.1,8.2-8.2c0.9-0.6,2.2-0.3,2.8,0.6c0.6,0.9,0.3,2.2-0.6,2.8c-2.8,1.8-5.2,4.1-6.9,6.9
		C17.1,4.7,16.7,4.9,16.3,5.1z M42.1-5.5c-0.4,0.2-0.8,0.2-1.2,0.1c-3.3-0.8-6.6-0.8-9.8,0c-1.1,0.2-2.1-0.4-2.4-1.5
		C28.4-8,29.1-9,30.2-9.3c3.8-0.9,7.8-0.9,11.6,0c1.1,0.2,1.7,1.3,1.5,2.4C43.1-6.3,42.6-5.8,42.1-5.5z"/>
</g>
</svg>
