<svg width="64" height="64" viewBox="0 0 64 64" fill="none" xmlns="http://www.w3.org/2000/svg">
<g clip-path="url(#clip0_51938_8257)">
<path d="M18.3728 46C18.0974 45.9999 17.8284 45.914 17.6014 45.7537C17.3744 45.5933 17.2001 45.366 17.1014 45.1017C17.0026 44.8374 16.9842 44.5486 17.0485 44.2734C17.1128 43.9981 17.2568 43.7493 17.4614 43.5599L28.8343 33.042C28.9766 32.9107 29.0903 32.7502 29.1682 32.5707C29.2461 32.3913 29.2864 32.197 29.2864 32.0005C29.2864 31.804 29.2461 31.6097 29.1682 31.4302C29.0903 31.2508 28.9766 31.0902 28.8343 30.9589L17.4614 20.4411C17.3284 20.3181 17.2203 20.1694 17.1432 20.0034C17.0661 19.8375 17.0216 19.6576 17.0121 19.474C16.9931 19.1031 17.1182 18.7397 17.3599 18.4636C17.6017 18.1876 17.9402 18.0215 18.3011 18.0019C18.662 17.9824 19.0156 18.1109 19.2842 18.3593L30.6571 28.8772C31.083 29.271 31.4236 29.7525 31.6567 30.2903C31.8898 30.8281 32.0103 31.4103 32.0103 31.9991C32.0103 32.5878 31.8898 33.17 31.6567 33.7079C31.4236 34.2457 31.083 34.7271 30.6571 35.121L19.2842 45.6388C19.0343 45.8708 18.7096 45.9995 18.3728 46Z" fill="white"/>
<path d="M35.3728 46C35.0974 45.9999 34.8284 45.914 34.6014 45.7537C34.3744 45.5933 34.2001 45.366 34.1014 45.1017C34.0026 44.8374 33.9842 44.5486 34.0485 44.2734C34.1128 43.9981 34.2568 43.7493 34.4614 43.5599L45.8343 33.042C45.9766 32.9107 46.0903 32.7502 46.1682 32.5707C46.2461 32.3913 46.2864 32.197 46.2864 32.0005C46.2864 31.804 46.2461 31.6097 46.1682 31.4302C46.0903 31.2508 45.9766 31.0902 45.8343 30.9589L34.4614 20.4411C34.3284 20.3181 34.2203 20.1694 34.1432 20.0034C34.0661 19.8375 34.0216 19.6576 34.0121 19.4739C34.0027 19.2903 34.0286 19.1066 34.0883 18.9332C34.1479 18.7599 34.2402 18.6003 34.3599 18.4636C34.4796 18.3269 34.6243 18.2158 34.7858 18.1366C34.9473 18.0574 35.1224 18.0116 35.3011 18.0019C35.4798 17.9923 35.6586 18.0188 35.8272 18.0802C35.9959 18.1415 36.1512 18.2363 36.2842 18.3593L47.6571 28.8772C48.083 29.271 48.4236 29.7525 48.6567 30.2903C48.8898 30.8281 49.0103 31.4103 49.0103 31.9991C49.0103 32.5878 48.8898 33.17 48.6567 33.7079C48.4236 34.2457 48.083 34.7271 47.6571 35.121L36.2842 45.6388C36.0343 45.8708 35.7096 45.9995 35.3728 46Z" fill="white"/>
</g>
<defs>
<clipPath id="clip0_51938_8257">
<rect width="64" height="64" fill="white"/>
</clipPath>
</defs>
</svg>
