<svg width="16" height="16" viewBox="0 0 16 16" fill="none" xmlns="http://www.w3.org/2000/svg">
<g clip-path="url(#clip0_51772_21437)">
<path d="M10.7397 7.56177L9.25244 6.7478L8.43848 5.2605C8.26367 4.93921 7.73633 4.93921 7.56152 5.2605L6.74756 6.7478L5.26025 7.56177C5.09961 7.64917 5 7.81763 5 8.00024C5 8.18286 5.09961 8.35132 5.26025 8.43872L6.74756 9.25269L7.56152 10.74C7.64893 10.9006 7.81738 11.0002 8 11.0002C8.18262 11.0002 8.35107 10.9006 8.43848 10.7405L9.25244 9.25269L10.7402 8.43872C10.9004 8.35132 11 8.18286 11 8.00024C11 7.81763 10.9004 7.64917 10.7397 7.56177ZM8.64404 8.44604C8.56055 8.49194 8.4917 8.56079 8.4458 8.64429L8 9.45874L7.55469 8.64478C7.50879 8.56079 7.43994 8.49194 7.35645 8.44604L6.54199 8.00024L7.35596 7.55493C7.43994 7.50903 7.50879 7.44019 7.55469 7.3562L8 6.54224L8.4458 7.35669C8.4917 7.44019 8.56055 7.50903 8.64453 7.55493L9.4585 8.00024L8.64404 8.44604Z" fill="#121212"/>
<path d="M15.3535 7.64648L13.5 5.79297V3C13.5 2.72363 13.2764 2.5 13 2.5H10.207L8.35352 0.646484C8.1582 0.451172 7.8418 0.451172 7.64648 0.646484L5.79297 2.5H3C2.72363 2.5 2.5 2.72363 2.5 3V5.79297L0.646484 7.64648C0.451172 7.8418 0.451172 8.1582 0.646484 8.35352L2.5 10.207V13C2.5 13.2764 2.72363 13.5 3 13.5H5.79297L7.64648 15.3535C7.74414 15.4512 7.87207 15.5 8 15.5C8.12793 15.5 8.25586 15.4512 8.35352 15.3535L10.207 13.5H13C13.2764 13.5 13.5 13.2764 13.5 13V10.207L15.3535 8.35352C15.5488 8.1582 15.5488 7.8418 15.3535 7.64648ZM12.6465 9.64648C12.5527 9.74023 12.5 9.86719 12.5 10V12.5H10C9.86719 12.5 9.74023 12.5527 9.64648 12.6465L8 14.293L6.35352 12.6465C6.25977 12.5527 6.13281 12.5 6 12.5H3.5V10C3.5 9.86719 3.44727 9.74023 3.35352 9.64648L1.70703 8L3.35352 6.35352C3.44727 6.25977 3.5 6.13281 3.5 6V3.5H6C6.13281 3.5 6.25977 3.44727 6.35352 3.35352L8 1.70703L9.64648 3.35352C9.74023 3.44727 9.86719 3.5 10 3.5H12.5V6C12.5 6.13281 12.5527 6.25977 12.6465 6.35352L14.293 8L12.6465 9.64648Z" fill="#121212"/>
</g>
<defs>
<clipPath id="clip0_51772_21437">
<rect width="16" height="16" fill="white"/>
</clipPath>
</defs>
</svg>
