<svg width="48" height="48" viewBox="0 0 48 48" fill="none" xmlns="http://www.w3.org/2000/svg">
<path d="M40 2.5H8C4.96 2.5 2.5 4.96 2.5 8V40C2.5 43.04 4.96 45.5 8 45.5H40C43.04 45.5 45.5 43.04 45.5 40V8C45.5 4.96 43.04 2.5 40 2.5ZM42.5 40C42.5 41.38 41.38 42.5 40 42.5H8C6.62 42.5 5.5 41.38 5.5 40V8C5.5 6.62 6.62 5.5 8 5.5H40C41.38 5.5 42.5 6.62 42.5 8V40Z" fill="#00688E"/>
<path d="M37.2801 14.16L33.8401 10.72C32.0601 8.94 28.9401 8.94 27.1601 10.72L13.1401 24.74C11.4801 26.4 10.4201 28.6 10.1601 30.92L9.60012 35.9C9.52012 36.58 9.76012 37.26 10.2401 37.74C10.6601 38.16 11.2401 38.4 11.8201 38.4C11.9001 38.4 11.9801 38.4 12.0801 38.4L17.0601 37.84C19.4001 37.58 21.5801 36.52 23.2401 34.86L37.2601 20.84C38.1601 19.94 38.6401 18.76 38.6401 17.5C38.6401 16.24 38.1401 15.06 37.2601 14.16H37.2801ZM21.1401 32.74C19.9601 33.92 18.4001 34.66 16.7401 34.86L12.7001 35.3L13.1401 31.26C13.3201 29.6 14.0801 28.04 15.2601 26.86L24.0001 18.12L29.8801 24L21.1401 32.74ZM35.1601 18.72L32.0001 21.88L26.1201 16L29.2801 12.84C29.6001 12.52 30.0401 12.34 30.5001 12.34C30.9601 12.34 31.4001 12.52 31.7201 12.84L35.1601 16.28C35.8401 16.96 35.8401 18.04 35.1601 18.72Z" fill="#00688E"/>
</svg>
