<?xml version="1.0" encoding="utf-8"?>
<!-- Generator: Adobe Illustrator 19.0.0, SVG Export Plug-In . SVG Version: 6.00 Build 0)  -->
<svg version="1.1" id="Layer_1" xmlns="http://www.w3.org/2000/svg" xmlns:xlink="http://www.w3.org/1999/xlink" x="0px" y="0px"
	 viewBox="16 -16 64 64" style="enable-background:new 16 -16 64 64;" xml:space="preserve">
<style type="text/css">
	.st0{clip-path:url(#SVGID_2_);}
	.st1{fill:#05BD83;}
</style>
<g>
	<defs>
		<rect id="SVGID_1_" x="16" y="-16" width="64" height="64"/>
	</defs>
	<clipPath id="SVGID_2_">
		<use xlink:href="#SVGID_1_"  style="overflow:visible;"/>
	</clipPath>
	<g class="st0">
		<path class="st1" d="M20,18c-0.5,0-1-0.2-1.4-0.6C18.2,17,18,16.5,18,16c0-0.7,0-1.4,0.1-2.1c0-0.3,0.1-0.5,0.2-0.8
			c0.1-0.2,0.3-0.4,0.5-0.6c0.2-0.2,0.4-0.3,0.7-0.4C19.7,12,20,12,20.2,12s0.5,0.1,0.8,0.2c0.2,0.1,0.4,0.3,0.6,0.5
			c0.2,0.2,0.3,0.4,0.4,0.7c0.1,0.2,0.1,0.5,0.1,0.8C22,14.8,22,15.4,22,16c0,0.5-0.2,1-0.6,1.4C21,17.8,20.5,18,20,18z M21.8,8.2
			c-0.3,0-0.6-0.1-0.9-0.2c-0.3-0.1-0.5-0.4-0.7-0.6c-0.2-0.3-0.3-0.6-0.3-0.9c0-0.3,0-0.6,0.1-0.9c0.7-2,1.7-3.9,2.9-5.7
			c0.1-0.2,0.3-0.4,0.5-0.6C23.5-0.9,23.8-1,24-1.1c0.3-0.1,0.5-0.1,0.8,0c0.3,0,0.5,0.1,0.7,0.3c0.2,0.1,0.4,0.3,0.6,0.5
			c0.1,0.2,0.3,0.5,0.3,0.7c0.1,0.3,0.1,0.5,0,0.8c0,0.3-0.1,0.5-0.3,0.7c-1,1.6-1.8,3.2-2.5,5c-0.1,0.4-0.4,0.7-0.7,0.9
			C22.6,8.1,22.2,8.2,21.8,8.2z M29.7-3.2c-0.4,0-0.8-0.1-1.1-0.4s-0.6-0.6-0.7-0.9c-0.1-0.4-0.2-0.8-0.1-1.2c0.1-0.4,0.3-0.7,0.6-1
			c1.6-1.4,3.4-2.6,5.3-3.7c0.2-0.1,0.5-0.2,0.8-0.3c0.3,0,0.5,0,0.8,0.1c0.3,0.1,0.5,0.2,0.7,0.4c0.2,0.2,0.4,0.4,0.5,0.6
			c0.1,0.2,0.2,0.5,0.2,0.8c0,0.3,0,0.5-0.1,0.8c-0.1,0.3-0.2,0.5-0.4,0.7c-0.2,0.2-0.4,0.4-0.6,0.5c-1.6,0.9-3.2,2-4.6,3.2
			C30.6-3.3,30.1-3.2,29.7-3.2z M42-9.4c-0.5,0-1-0.2-1.3-0.5c-0.4-0.3-0.6-0.8-0.7-1.3c-0.1-0.5,0.1-1,0.4-1.4
			c0.3-0.4,0.7-0.7,1.2-0.8c2.1-0.5,4.2-0.7,6.4-0.7c0.5,0,1,0.2,1.4,0.6C49.8-13,50-12.5,50-12s-0.2,1-0.6,1.4
			C49-10.2,48.5-10,48-10c-1.9,0-3.7,0.2-5.5,0.6C42.3-9.4,42.2-9.4,42-9.4L42-9.4z"/>
	</g>
</g>
<path class="st1" d="M76,14c0.5,0,1,0.2,1.4,0.6C77.8,15,78,15.5,78,16c0,0.7,0,1.4-0.1,2.1c0,0.3-0.1,0.5-0.2,0.8s-0.3,0.4-0.5,0.6
	c-0.2,0.2-0.4,0.3-0.7,0.4C76.3,20,76,20,75.8,20c-0.3,0-0.5-0.1-0.8-0.2c-0.2-0.1-0.4-0.3-0.6-0.5s-0.3-0.4-0.4-0.7
	c-0.1-0.2-0.1-0.5-0.1-0.8C74,17.2,74,16.6,74,16c0-0.5,0.2-1,0.6-1.4C75,14.2,75.5,14,76,14z M74.2,23.8c0.3,0,0.6,0.1,0.9,0.2
	c0.3,0.1,0.5,0.4,0.7,0.6c0.2,0.3,0.3,0.6,0.3,0.9s0,0.6-0.1,0.9c-0.7,2-1.7,3.9-2.9,5.7c-0.1,0.2-0.3,0.4-0.5,0.6
	c-0.2,0.2-0.5,0.3-0.7,0.3c-0.3,0.1-0.5,0.1-0.8,0c-0.3,0-0.5-0.1-0.7-0.3c-0.2-0.1-0.4-0.3-0.6-0.5c-0.1-0.2-0.3-0.5-0.3-0.7
	c-0.1-0.3-0.1-0.5,0-0.8c0-0.3,0.1-0.5,0.3-0.7c1-1.6,1.8-3.2,2.5-5c0.1-0.4,0.4-0.7,0.7-0.9C73.4,23.9,73.8,23.8,74.2,23.8z
	 M66.3,35.2c0.4,0,0.8,0.1,1.1,0.4s0.6,0.6,0.7,0.9c0.1,0.4,0.2,0.8,0.1,1.2s-0.3,0.7-0.6,1c-1.6,1.4-3.4,2.6-5.3,3.7
	c-0.2,0.1-0.5,0.2-0.8,0.3c-0.3,0-0.5,0-0.8-0.1c-0.3-0.1-0.5-0.2-0.7-0.4c-0.2-0.2-0.4-0.4-0.5-0.6c-0.1-0.2-0.2-0.5-0.2-0.8
	c0-0.3,0-0.5,0.1-0.8c0.1-0.3,0.2-0.5,0.4-0.7c0.2-0.2,0.4-0.4,0.6-0.5c1.6-0.9,3.2-2,4.6-3.2C65.4,35.3,65.9,35.2,66.3,35.2z
	 M54,41.4c0.5,0,1,0.2,1.3,0.5c0.4,0.3,0.6,0.8,0.7,1.3c0.1,0.5-0.1,1-0.4,1.4c-0.3,0.4-0.7,0.7-1.2,0.8C52.3,45.8,50.1,46,48,46
	c-0.5,0-1-0.2-1.4-0.6S46,44.5,46,44s0.2-1,0.6-1.4S47.5,42,48,42c1.9,0,3.7-0.2,5.5-0.6C53.7,41.4,53.8,41.4,54,41.4L54,41.4z"/>
</svg>
