<svg width="48" height="48" viewBox="0 0 48 48" fill="none" xmlns="http://www.w3.org/2000/svg">
<g clip-path="url(#clip0_51772_21398)">
<path d="M27.75 42H20.25C19.8522 42 19.4706 41.842 19.1893 41.5607C18.908 41.2794 18.75 40.8978 18.75 40.5C18.75 40.1022 18.908 39.7206 19.1893 39.4393C19.4706 39.158 19.8522 39 20.25 39H27.75C28.1478 39 28.5294 39.158 28.8107 39.4393C29.092 39.7206 29.25 40.1022 29.25 40.5C29.25 40.8978 29.092 41.2794 28.8107 41.5607C28.5294 41.842 28.1478 42 27.75 42Z" fill="#00688E"/>
<path d="M25.5 46.5H22.5C22.1022 46.5 21.7206 46.342 21.4393 46.0607C21.158 45.7794 21 45.3978 21 45C21 44.6022 21.158 44.2206 21.4393 43.9393C21.7206 43.658 22.1022 43.5 22.5 43.5H25.5C25.8978 43.5 26.2794 43.658 26.5607 43.9393C26.842 44.2206 27 44.6022 27 45C27 45.3978 26.842 45.7794 26.5607 46.0607C26.2794 46.342 25.8978 46.5 25.5 46.5Z" fill="#00688E"/>
<path d="M24.0001 1.50006C26.0693 1.49424 28.1191 1.89891 30.0309 2.69065C31.9426 3.48239 33.6783 4.64547 35.1375 6.11256C36.6046 7.57178 37.7677 9.30751 38.5595 11.2193C39.3512 13.131 39.7559 15.1808 39.7501 17.2501C39.7521 20.2948 38.8659 23.274 37.2 25.8226C35.7668 28.0233 33.8078 29.8323 31.5001 31.0861V33.0001C31.5001 33.7957 31.184 34.5588 30.6214 35.1214C30.0588 35.684 29.2957 36.0001 28.5001 36.0001H19.5001C18.7044 36.0001 17.9413 35.684 17.3787 35.1214C16.8161 34.5588 16.5001 33.7957 16.5001 33.0001V31.0861C14.1923 29.8323 12.2333 28.0233 10.8001 25.8226C9.13426 23.274 8.24804 20.2948 8.25006 17.2501C8.24424 15.1808 8.64892 13.131 9.44066 11.2193C10.2324 9.30751 11.3955 7.57178 12.8626 6.11256C14.3218 4.64547 16.0575 3.48239 17.9693 2.69065C19.881 1.89891 21.9308 1.49424 24.0001 1.50006ZM28.5001 33.0001V30.1621C28.4999 29.8763 28.5815 29.5964 28.7351 29.3553C28.8887 29.1143 29.108 28.9222 29.3671 28.8016C31.5664 27.7748 33.4283 26.1436 34.7356 24.0985C36.0428 22.0535 36.7415 19.6788 36.7501 17.2516C36.7465 13.871 35.4021 10.6299 33.0118 8.23937C30.6216 5.84881 27.3806 4.50403 24.0001 4.50006C20.6198 4.50403 17.3791 5.84861 14.9888 8.23884C12.5986 10.6291 11.254 13.8698 11.2501 17.2501C11.2586 19.6773 11.9573 22.052 13.2645 24.097C14.5718 26.1421 16.4337 27.7733 18.6331 28.8001C18.8922 28.9207 19.1114 29.1128 19.265 29.3538C19.4186 29.5949 19.5002 29.8747 19.5001 30.1606V33.0001H28.5001Z" fill="#00688E"/>
</g>
<defs>
<clipPath id="clip0_51772_21398">
<rect width="48" height="48" fill="white"/>
</clipPath>
</defs>
</svg>
