<svg width="32" height="32" viewBox="0 0 32 32" fill="none" xmlns="http://www.w3.org/2000/svg">
<g clip-path="url(#clip0_51824_20903)">
<path d="M6.00018 25.9997C5.79798 25.9996 5.60055 25.9383 5.43393 25.8237C5.26731 25.7092 5.13933 25.5468 5.06687 25.358C4.99442 25.1693 4.98089 24.963 5.02808 24.7663C5.07526 24.5697 5.18094 24.392 5.33118 24.2567L13.6792 16.7437C13.7836 16.6499 13.8671 16.5352 13.9243 16.407C13.9814 16.2788 14.011 16.1401 14.011 15.9997C14.011 15.8593 13.9814 15.7206 13.9243 15.5924C13.8671 15.4642 13.7836 15.3495 13.6792 15.2557L5.33118 7.7427C5.23354 7.65485 5.15416 7.54862 5.09758 7.43009C5.04099 7.31156 5.00831 7.18304 5.00139 7.05188C4.98742 6.78699 5.07925 6.52739 5.25668 6.3302C5.43411 6.13301 5.6826 6.01438 5.9475 6.00041C6.21239 5.98644 6.47199 6.07827 6.66918 6.2557L15.0172 13.7687C15.3298 14.05 15.5798 14.3939 15.7509 14.7781C15.922 15.1623 16.0104 15.5781 16.0104 15.9987C16.0104 16.4193 15.922 16.8351 15.7509 17.2193C15.5798 17.6035 15.3298 17.9474 15.0172 18.2287L6.66918 25.7417C6.48573 25.9074 6.2474 25.9994 6.00018 25.9997Z" fill="#00688E"/>
<path d="M18.0002 25.9997C17.798 25.9996 17.6005 25.9383 17.4339 25.8237C17.2673 25.7092 17.1393 25.5468 17.0669 25.358C16.9944 25.1693 16.9809 24.963 17.0281 24.7663C17.0753 24.5697 17.1809 24.392 17.3312 24.2567L25.6792 16.7437C25.7836 16.6499 25.8671 16.5352 25.9243 16.407C25.9814 16.2788 26.011 16.1401 26.011 15.9997C26.011 15.8593 25.9814 15.7206 25.9243 15.5924C25.8671 15.4642 25.7836 15.3495 25.6792 15.2557L17.3312 7.7427C17.2335 7.65485 17.1542 7.54862 17.0976 7.43009C17.041 7.31156 17.0083 7.18304 17.0014 7.05188C16.9945 6.92072 17.0135 6.78948 17.0573 6.66565C17.1011 6.54182 17.1688 6.42784 17.2567 6.3302C17.3445 6.23256 17.4508 6.15318 17.5693 6.0966C17.6878 6.04001 17.8163 6.00733 17.9475 6.00041C18.0787 5.99349 18.2099 6.01248 18.3337 6.05628C18.4576 6.10008 18.5715 6.16785 18.6692 6.2557L27.0172 13.7687C27.3298 14.05 27.5798 14.3939 27.7509 14.7781C27.922 15.1623 28.0104 15.5781 28.0104 15.9987C28.0104 16.4193 27.922 16.8351 27.7509 17.2193C27.5798 17.6035 27.3298 17.9474 27.0172 18.2287L18.6692 25.7417C18.4857 25.9074 18.2474 25.9994 18.0002 25.9997Z" fill="#00688E"/>
</g>
<defs>
<clipPath id="clip0_51824_20903">
<rect width="32" height="32" fill="white"/>
</clipPath>
</defs>
</svg>
