<?xml version="1.0" encoding="utf-8"?>
<!-- Generator: Adobe Illustrator 19.0.0, SVG Export Plug-In . SVG Version: 6.00 Build 0)  -->
<svg version="1.1" id="Layer_1" xmlns="http://www.w3.org/2000/svg" xmlns:xlink="http://www.w3.org/1999/xlink" x="0px" y="0px"
	 viewBox="0 0 32 32" style="enable-background:new 0 0 32 32;" xml:space="preserve">
<style type="text/css">
	.st0{clip-path:url(#SVGID_2_);}
	.st1{fill:#05BD83;}
</style>
<g>
	<defs>
		<rect id="SVGID_1_" width="32" height="32"/>
	</defs>
	<clipPath id="SVGID_2_">
		<use xlink:href="#SVGID_1_"  style="overflow:visible;"/>
	</clipPath>
	<g class="st0">
		<path class="st1" d="M26,26c-0.2,0-0.5-0.1-0.7-0.3L17,18.2c-0.3-0.3-0.6-0.6-0.7-1C16.1,16.8,16,16.4,16,16
			c0-0.4,0.1-0.8,0.3-1.2c0.2-0.4,0.4-0.7,0.7-1l8.3-7.5C25.5,6.1,25.8,6,26.1,6s0.5,0.1,0.7,0.3C26.9,6.5,27,6.8,27,7.1
			c0,0.3-0.1,0.5-0.3,0.7l-8.3,7.5c-0.1,0.1-0.2,0.2-0.2,0.3C18,15.7,18,15.9,18,16c0,0.1,0,0.3,0.1,0.4c0.1,0.1,0.1,0.2,0.2,0.3
			l8.3,7.5c0.1,0.1,0.3,0.3,0.3,0.5c0,0.2,0,0.4,0,0.6c-0.1,0.2-0.2,0.4-0.4,0.5C26.4,25.9,26.2,26,26,26z"/>
		<path class="st1" d="M14,26c-0.2,0-0.5-0.1-0.7-0.3L5,18.2c-0.3-0.3-0.6-0.6-0.7-1C4.1,16.8,4,16.4,4,16c0-0.4,0.1-0.8,0.3-1.2
			c0.2-0.4,0.4-0.7,0.7-1l8.3-7.5c0.1-0.1,0.2-0.2,0.3-0.2C13.8,6,13.9,6,14.1,6c0.1,0,0.3,0,0.4,0.1c0.1,0.1,0.2,0.1,0.3,0.2
			c0.1,0.1,0.2,0.2,0.2,0.3C15,6.8,15,6.9,15,7.1c0,0.1,0,0.3-0.1,0.4c-0.1,0.1-0.1,0.2-0.2,0.3l-8.3,7.5c-0.1,0.1-0.2,0.2-0.2,0.3
			C6,15.7,6,15.9,6,16c0,0.1,0,0.3,0.1,0.4c0.1,0.1,0.1,0.2,0.2,0.3l8.3,7.5c0.1,0.1,0.3,0.3,0.3,0.5c0,0.2,0,0.4,0,0.6
			c-0.1,0.2-0.2,0.4-0.4,0.5C14.4,25.9,14.2,26,14,26z"/>
	</g>
</g>
</svg>
