<svg width="48" height="48" viewBox="0 0 48 48" fill="none" xmlns="http://www.w3.org/2000/svg">
<path d="M28 35.5H32C32.82 35.5 33.5 34.82 33.5 34C33.5 33.18 32.82 32.5 32 32.5H28C27.18 32.5 26.5 33.18 26.5 34C26.5 34.82 27.18 35.5 28 35.5Z" fill="#00688E"/>
<path d="M40.44 2.5H15.56C12.78 2.5 10.5 4.78 10.5 7.6V10C10.5 10.82 11.18 11.5 12 11.5C12.82 11.5 13.5 10.82 13.5 10V7.6C13.5 6.44 14.42 5.5 15.56 5.5H40.46C41.6 5.5 42.52 6.44 42.52 7.6V36.4C42.52 37.56 41.6 38.5 40.46 38.5H28.02C27.2 38.5 26.52 39.18 26.52 40C26.52 40.82 27.2 41.5 28.02 41.5H40.46C43.24 41.5 45.52 39.22 45.52 36.4V7.6C45.52 4.78 43.26 2.5 40.46 2.5H40.44Z" fill="#00688E"/>
<path d="M19.76 14.5H6.23998C4.17998 14.5 2.47998 16.12 2.47998 18.1V41.9C2.47998 43.88 4.15998 45.5 6.23998 45.5H19.74C21.8 45.5 23.5 43.88 23.5 41.9V18.1C23.5 16.12 21.82 14.5 19.74 14.5H19.76ZM20.5 41.9C20.5 42.22 20.16 42.5 19.74 42.5H6.23998C5.83998 42.5 5.47998 42.22 5.47998 41.9V18.1C5.47998 17.78 5.81998 17.5 6.23998 17.5H19.74C20.14 17.5 20.5 17.78 20.5 18.1V41.9Z" fill="#00688E"/>
<path d="M15 20.5H11C10.18 20.5 9.5 21.18 9.5 22C9.5 22.82 10.18 23.5 11 23.5H15C15.82 23.5 16.5 22.82 16.5 22C16.5 21.18 15.82 20.5 15 20.5Z" fill="#00688E"/>
</svg>
