<svg width="48" height="48" viewBox="0 0 48 48" fill="none" xmlns="http://www.w3.org/2000/svg">
<g clip-path="url(#clip0_2333_1650)">
<path d="M5.4645 1.5H42.5355C43.5778 1.4936 44.5801 1.90038 45.3231 2.63131C46.0661 3.36224 46.4893 4.35778 46.5 5.4V33.6C46.4893 34.6422 46.0661 35.6378 45.3231 36.3687C44.5801 37.0996 43.5778 37.5064 42.5355 37.5H5.4645C4.42224 37.5064 3.4199 37.0996 2.67688 36.3687C1.93386 35.6378 1.51069 34.6422 1.5 33.6V5.4C1.51069 4.35778 1.93386 3.36224 2.67688 2.63131C3.4199 1.90038 4.42224 1.4936 5.4645 1.5ZM42.5355 34.5C42.7824 34.5073 43.0222 34.4169 43.2028 34.2483C43.3834 34.0798 43.4902 33.8468 43.5 33.6V5.4C43.4902 5.15317 43.3834 4.92018 43.2028 4.75165C43.0222 4.58313 42.7824 4.49269 42.5355 4.5H5.4645C5.21759 4.49269 4.97777 4.58313 4.79717 4.75165C4.61657 4.92018 4.50977 5.15317 4.5 5.4V33.6C4.50977 33.8468 4.61657 34.0798 4.79717 34.2483C4.97777 34.4169 5.21759 34.5073 5.4645 34.5H42.5355Z" fill="#00688E"/>
<path d="M24 46.5C23.6022 46.5 23.2206 46.342 22.9393 46.0607C22.658 45.7794 22.5 45.3978 22.5 45V36C22.5 35.6022 22.658 35.2206 22.9393 34.9393C23.2206 34.658 23.6022 34.5 24 34.5C24.3978 34.5 24.7794 34.658 25.0607 34.9393C25.342 35.2206 25.5 35.6022 25.5 36V45C25.5 45.3978 25.342 45.7794 25.0607 46.0607C24.7794 46.342 24.3978 46.5 24 46.5Z" fill="#00688E"/>
<path d="M45 27H3C2.60218 27 2.22064 26.842 1.93934 26.5607C1.65804 26.2794 1.5 25.8978 1.5 25.5C1.5 25.1022 1.65804 24.7206 1.93934 24.4393C2.22064 24.158 2.60218 24 3 24H45C45.3978 24 45.7794 24.158 46.0607 24.4393C46.342 24.7206 46.5 25.1022 46.5 25.5C46.5 25.8978 46.342 26.2794 46.0607 26.5607C45.7794 26.842 45.3978 27 45 27Z" fill="#00688E"/>
<path d="M33 46.5H15C14.6022 46.5 14.2206 46.342 13.9393 46.0607C13.658 45.7794 13.5 45.3978 13.5 45C13.5 44.6022 13.658 44.2206 13.9393 43.9393C14.2206 43.658 14.6022 43.5 15 43.5H33C33.3978 43.5 33.7794 43.658 34.0607 43.9393C34.342 44.2206 34.5 44.6022 34.5 45C34.5 45.3978 34.342 45.7794 34.0607 46.0607C33.7794 46.342 33.3978 46.5 33 46.5Z" fill="#00688E"/>
</g>
<defs>
<clipPath id="clip0_2333_1650">
<rect width="48" height="48" fill="white"/>
</clipPath>
</defs>
</svg>
