<svg width="32" height="32" viewBox="0 0 32 32" fill="none" xmlns="http://www.w3.org/2000/svg">
<g clip-path="url(#clip0_2344_130)">
<path d="M5 2H23C24.0609 2 25.0783 2.42143 25.8284 3.17157C26.5786 3.92172 27 4.93913 27 6V26C27 27.0609 26.5786 28.0783 25.8284 28.8284C25.0783 29.5786 24.0609 30 23 30H5C3.93913 30 2.92172 29.5786 2.17157 28.8284C1.42143 28.0783 1 27.0609 1 26V21C1 20.4696 1.21071 19.9609 1.58579 19.5858C1.96086 19.2107 2.46957 19 3 19H15V13H11V15C11 15.5304 10.7893 16.0391 10.4142 16.4142C10.0391 16.7893 9.53043 17 9 17H3C2.46957 17 1.96086 16.7893 1.58579 16.4142C1.21071 16.0391 1 15.5304 1 15V6C1 4.93913 1.42143 3.92172 2.17157 3.17157C2.92172 2.42143 3.93913 2 5 2ZM23 28C23.5304 28 24.0391 27.7893 24.4142 27.4142C24.7893 27.0391 25 26.5304 25 26V6C25 5.46957 24.7893 4.96086 24.4142 4.58579C24.0391 4.21071 23.5304 4 23 4H5C4.46957 4 3.96086 4.21071 3.58579 4.58579C3.21071 4.96086 3 5.46957 3 6V15H9V12C9 11.7348 9.10536 11.4804 9.29289 11.2929C9.48043 11.1054 9.73478 11 10 11H16C16.2652 11 16.5196 11.1054 16.7071 11.2929C16.8946 11.4804 17 11.7348 17 12V20C17 20.2652 16.8946 20.5196 16.7071 20.7071C16.5196 20.8946 16.2652 21 16 21H3V26C3 26.5304 3.21071 27.0391 3.58579 27.4142C3.96086 27.7893 4.46957 28 5 28H23Z" fill="#424242"/>
<path d="M29 16H26C25.7348 16 25.4804 15.8946 25.2929 15.7071C25.1054 15.5196 25 15.2652 25 15C25 14.7348 25.1054 14.4804 25.2929 14.2929C25.4804 14.1054 25.7348 14 26 14H29V9H26C25.7348 9 25.4804 8.89464 25.2929 8.70711C25.1054 8.51957 25 8.26522 25 8C25 7.73478 25.1054 7.48043 25.2929 7.29289C25.4804 7.10536 25.7348 7 26 7H29C29.5304 7 30.0391 7.21071 30.4142 7.58579C30.7893 7.96086 31 8.46957 31 9V14C31 14.5304 30.7893 15.0391 30.4142 15.4142C30.0391 15.7893 29.5304 16 29 16Z" fill="#424242"/>
</g>
<defs>
<clipPath id="clip0_2344_130">
<rect width="32" height="32" fill="white"/>
</clipPath>
</defs>
</svg>
