<svg width="32" height="32" viewBox="0 0 32 32" fill="none" xmlns="http://www.w3.org/2000/svg">
<g clip-path="url(#clip0_2344_111)">
<path d="M11.4 15.97H20.6C21.2365 15.97 21.847 16.2228 22.2971 16.6729C22.7471 17.123 23 17.7335 23 18.37V25.57C23 25.8851 22.9379 26.1972 22.8173 26.4884C22.6967 26.7796 22.5199 27.0442 22.2971 27.267C22.0742 27.4899 21.8096 27.6667 21.5184 27.7873C21.2273 27.9079 20.9152 27.97 20.6 27.97H11.4C10.7635 27.97 10.153 27.7171 9.70294 27.267C9.25286 26.8169 9 26.2065 9 25.57V18.37C9 17.7335 9.25286 17.123 9.70294 16.6729C10.153 16.2228 10.7635 15.97 11.4 15.97ZM20.6 25.97C20.7061 25.97 20.8078 25.9278 20.8828 25.8528C20.9579 25.7778 21 25.6761 21 25.57V18.37C21 18.2639 20.9579 18.1621 20.8828 18.0871C20.8078 18.0121 20.7061 17.97 20.6 17.97H11.4C11.2939 17.97 11.1922 18.0121 11.1172 18.0871C11.0421 18.1621 11 18.2639 11 18.37V25.57C11 25.6761 11.0421 25.7778 11.1172 25.8528C11.1922 25.9278 11.2939 25.97 11.4 25.97H20.6Z" fill="#424242"/>
<path d="M4.03 5.96997H7C7.26522 5.96997 7.51957 6.07533 7.70711 6.26286C7.89464 6.4504 8 6.70475 8 6.96997V23.97C8 24.2352 7.89464 24.4895 7.70711 24.6771C7.51957 24.8646 7.26522 24.97 7 24.97H4.03C3.22664 24.9692 2.45641 24.6497 1.88834 24.0816C1.32028 23.5136 1.00079 22.7433 1 21.94V8.99997C1.00079 8.19661 1.32028 7.42638 1.88834 6.85831C2.45641 6.29025 3.22664 5.97076 4.03 5.96997ZM6 7.96997H4.03C3.75691 7.97024 3.49508 8.07884 3.30197 8.27194C3.10887 8.46505 3.00026 8.72688 3 8.99997V21.94C3.00026 22.2131 3.10887 22.4749 3.30197 22.668C3.49508 22.8611 3.75691 22.9697 4.03 22.97H6V7.96997Z" fill="#424242"/>
<path d="M27.97 24.97H25C24.7348 24.97 24.4804 24.8646 24.2929 24.6771C24.1054 24.4895 24 24.2352 24 23.97V6.96997C24 6.70475 24.1054 6.4504 24.2929 6.26286C24.4804 6.07533 24.7348 5.96997 25 5.96997H27.97C28.7734 5.97076 29.5436 6.29025 30.1117 6.85831C30.6797 7.42638 30.9992 8.19661 31 8.99997L31 21.94C30.9992 22.7433 30.6797 23.5136 30.1117 24.0816C29.5436 24.6497 28.7734 24.9692 27.97 24.97ZM26 22.97H27.97C28.2431 22.9697 28.5049 22.8611 28.698 22.668C28.8911 22.4749 28.9997 22.2131 29 21.94V8.99997C28.9997 8.72688 28.8911 8.46505 28.698 8.27194C28.5049 8.07884 28.2431 7.97024 27.97 7.96997H26V22.97Z" fill="#424242"/>
<path d="M7 5.96997H25C25.2652 5.96997 25.5196 6.07533 25.7071 6.26286C25.8946 6.4504 26 6.70475 26 6.96997V13.97C26 14.2352 25.8946 14.4895 25.7071 14.6771C25.5196 14.8646 25.2652 14.97 25 14.97H7C6.73478 14.97 6.48043 14.8646 6.29289 14.6771C6.10536 14.4895 6 14.2352 6 13.97V6.96997C6 6.70475 6.10536 6.4504 6.29289 6.26286C6.48043 6.07533 6.73478 5.96997 7 5.96997ZM24 7.96997H8V12.97H24V7.96997Z" fill="#424242"/>
<path d="M9 24.97H7C6.73478 24.97 6.48043 24.8646 6.29289 24.6771C6.10536 24.4895 6 24.2352 6 23.97C6 23.7048 6.10536 23.4504 6.29289 23.2629C6.48043 23.0753 6.73478 22.97 7 22.97H9C9.26522 22.97 9.51957 23.0753 9.70711 23.2629C9.89464 23.4504 10 23.7048 10 23.97C10 24.2352 9.89464 24.4895 9.70711 24.6771C9.51957 24.8646 9.26522 24.97 9 24.97Z" fill="#424242"/>
<path d="M25 24.97H23C22.7348 24.97 22.4804 24.8646 22.2929 24.6771C22.1054 24.4895 22 24.2352 22 23.97C22 23.7048 22.1054 23.4504 22.2929 23.2629C22.4804 23.0753 22.7348 22.97 23 22.97H25C25.2652 22.97 25.5196 23.0753 25.7071 23.2629C25.8946 23.4504 26 23.7048 26 23.97C26 24.2352 25.8946 24.4895 25.7071 24.6771C25.5196 24.8646 25.2652 24.97 25 24.97Z" fill="#424242"/>
<path d="M9 20.97H7C6.73478 20.97 6.48043 20.8646 6.29289 20.6771C6.10536 20.4895 6 20.2352 6 19.97C6 19.7048 6.10536 19.4504 6.29289 19.2629C6.48043 19.0753 6.73478 18.97 7 18.97H9C9.26522 18.97 9.51957 19.0753 9.70711 19.2629C9.89464 19.4504 10 19.7048 10 19.97C10 20.2352 9.89464 20.4895 9.70711 20.6771C9.51957 20.8646 9.26522 20.97 9 20.97Z" fill="#424242"/>
<path d="M25 20.97H23C22.7348 20.97 22.4804 20.8646 22.2929 20.6771C22.1054 20.4895 22 20.2352 22 19.97C22 19.7048 22.1054 19.4504 22.2929 19.2629C22.4804 19.0753 22.7348 18.97 23 18.97H25C25.2652 18.97 25.5196 19.0753 25.7071 19.2629C25.8946 19.4504 26 19.7048 26 19.97C26 20.2352 25.8946 20.4895 25.7071 20.6771C25.5196 20.8646 25.2652 20.97 25 20.97Z" fill="#424242"/>
<path d="M14 18.97C13.7348 18.97 13.4804 18.8646 13.2929 18.6771C13.1054 18.4895 13 18.2352 13 17.97V13.97C13 13.7048 13.1054 13.4504 13.2929 13.2629C13.4804 13.0753 13.7348 12.97 14 12.97C14.2652 12.97 14.5196 13.0753 14.7071 13.2629C14.8946 13.4504 15 13.7048 15 13.97V17.97C15 18.2352 14.8946 18.4895 14.7071 18.6771C14.5196 18.8646 14.2652 18.97 14 18.97Z" fill="#424242"/>
</g>
<defs>
<clipPath id="clip0_2344_111">
<rect width="32" height="32" fill="white"/>
</clipPath>
</defs>
</svg>
