<svg width="48" height="48" viewBox="0 0 48 48" fill="none" xmlns="http://www.w3.org/2000/svg">
<g clip-path="url(#clip0_51772_21424)">
<path d="M37.4844 35.9549H34.7694C34.3835 35.9549 34.0134 35.8016 33.7405 35.5288C33.4677 35.2559 33.3144 34.8858 33.3144 34.4999C33.3144 34.114 33.4677 33.7439 33.7405 33.4711C34.0134 33.1982 34.3835 33.0449 34.7694 33.0449H37.4844C38.0812 33.0449 38.6722 32.9274 39.2237 32.699C39.7751 32.4705 40.2761 32.1358 40.6982 31.7137C41.1202 31.2917 41.455 30.7906 41.6834 30.2392C41.9118 29.6878 42.0294 29.0968 42.0294 28.4999C42.0294 27.9031 41.9118 27.312 41.6834 26.7606C41.455 26.2092 41.1202 25.7082 40.6982 25.2861C40.2761 24.8641 39.7751 24.5293 39.2237 24.3009C38.6722 24.0725 38.0812 23.9549 37.4844 23.9549H33.3144C32.9285 23.9549 32.5584 23.8016 32.2855 23.5288C32.0127 23.2559 31.8594 22.8858 31.8594 22.4999C31.8594 22.114 32.0127 21.7439 32.2855 21.4711C32.5584 21.1982 32.9285 21.0449 33.3144 21.0449H37.4844C39.4616 21.0449 41.3578 21.8304 42.7559 23.2284C44.1539 24.6265 44.9394 26.5227 44.9394 28.4999C44.9394 30.4771 44.1539 32.3733 42.7559 33.7714C41.3578 35.1695 39.4616 35.9549 37.4844 35.9549Z" fill="#00688E"/>
<path d="M5.98469 18H32.9997C33.3975 18 33.779 18.158 34.0604 18.4393C34.3417 18.7206 34.4997 19.1022 34.4997 19.5V35.085C34.5189 37.2941 33.6611 39.4207 32.1145 40.9982C30.5679 42.5757 28.4588 43.4755 26.2497 43.5H12.7347C10.5256 43.4755 8.41647 42.5757 6.86987 40.9982C5.32326 39.4207 4.46549 37.2941 4.48469 35.085V19.5C4.48469 19.1022 4.64273 18.7206 4.92403 18.4393C5.20534 18.158 5.58687 18 5.98469 18ZM31.4997 21H7.48469V35.085C7.46463 36.4987 8.00606 37.8627 8.99024 38.8778C9.97442 39.8929 11.321 40.4763 12.7347 40.5H26.2497C27.6634 40.4763 29.01 39.8929 29.9941 38.8778C30.9783 37.8627 31.5197 36.4987 31.4997 35.085V21Z" fill="#00688E"/>
<path d="M13.5 13.5C13.1022 13.5 12.7206 13.342 12.4393 13.0607C12.158 12.7794 12 12.3978 12 12V6C12 5.60218 12.158 5.22064 12.4393 4.93934C12.7206 4.65804 13.1022 4.5 13.5 4.5C13.8978 4.5 14.2794 4.65804 14.5607 4.93934C14.842 5.22064 15 5.60218 15 6V12C15 12.3978 14.842 12.7794 14.5607 13.0607C14.2794 13.342 13.8978 13.5 13.5 13.5Z" fill="#00688E"/>
<path d="M19.5 13.5C19.1022 13.5 18.7206 13.342 18.4393 13.0607C18.158 12.7794 18 12.3978 18 12V6C18 5.60218 18.158 5.22064 18.4393 4.93934C18.7206 4.65804 19.1022 4.5 19.5 4.5C19.8978 4.5 20.2794 4.65804 20.5607 4.93934C20.842 5.22064 21 5.60218 21 6V12C21 12.3978 20.842 12.7794 20.5607 13.0607C20.2794 13.342 19.8978 13.5 19.5 13.5Z" fill="#00688E"/>
<path d="M25.5 13.5C25.1022 13.5 24.7206 13.342 24.4393 13.0607C24.158 12.7794 24 12.3978 24 12V6C24 5.60218 24.158 5.22064 24.4393 4.93934C24.7206 4.65804 25.1022 4.5 25.5 4.5C25.8978 4.5 26.2794 4.65804 26.5607 4.93934C26.842 5.22064 27 5.60218 27 6V12C27 12.3978 26.842 12.7794 26.5607 13.0607C26.2794 13.342 25.8978 13.5 25.5 13.5Z" fill="#00688E"/>
</g>
<defs>
<clipPath id="clip0_51772_21424">
<rect width="48" height="48" fill="white"/>
</clipPath>
</defs>
</svg>
