<svg width="48" height="48" viewBox="0 0 48 48" fill="none" xmlns="http://www.w3.org/2000/svg">
<path d="M34 6C35.78 6 37.52 6.52 39 7.52C40.48 8.5 41.64 9.92 42.32 11.56C43 13.2 43.18 15.02 42.84 16.76C42.5 18.5 41.64 20.1 40.38 21.36C39.12 22.62 37.52 23.48 35.78 23.82C34.04 24.16 32.22 23.98 30.58 23.3C28.94 22.62 27.52 21.46 26.54 19.98C25.56 18.5 25.02 16.76 25.02 14.98C25.02 12.6 25.98 10.3 27.66 8.62C29.34 6.94 31.64 5.98 34.02 5.98L34 6ZM34 21C35.18 21 36.34 20.64 37.34 19.98C38.32 19.32 39.1 18.38 39.54 17.28C40 16.18 40.12 14.98 39.88 13.82C39.64 12.66 39.08 11.58 38.24 10.74C37.4 9.9 36.34 9.32 35.16 9.1C34 8.86 32.78 8.98 31.7 9.44C30.62 9.9 29.66 10.66 29 11.64C28.34 12.62 27.98 13.78 27.98 14.98C27.98 16.58 28.62 18.1 29.74 19.22C30.86 20.34 32.4 20.98 33.98 20.98L34 21Z" fill="#00688E"/>
<path d="M12 12.5C7.32 12.5 3.5 16.32 3.5 21C3.5 22.74 4.04 24.6 4.88 25.86L5.76 27.42C6.24 28.14 6.48 28.96 6.48 29.82V38C6.48 41.04 8.94 43.5 11.98 43.5C15.02 43.5 17.48 41.04 17.48 38V29.82C17.48 28.96 17.74 28.12 18.26 27.32L19.04 25.94C19.94 24.58 20.48 22.74 20.48 21C20.48 16.32 16.66 12.5 11.98 12.5H12ZM16.5 24.38L15.72 25.76C14.92 26.98 14.48 28.38 14.48 29.84V38.02C14.48 39.4 13.36 40.52 11.98 40.52C10.6 40.52 9.48 39.4 9.48 38.02V29.84C9.48 28.38 9.06 26.98 8.3 25.86L7.42 24.3C6.84 23.44 6.48 22.18 6.48 21.02C6.48 18.5 8.18 16.38 10.48 15.72V21.02C10.48 21.84 11.16 22.52 11.98 22.52C12.8 22.52 13.48 21.84 13.48 21.02V15.72C15.78 16.38 17.48 18.5 17.48 21.02C17.48 22.18 17.12 23.44 16.48 24.4L16.5 24.38Z" fill="#00688E"/>
<path d="M34 26.5C27.66 26.5 22.5 31.66 22.5 38V40.16C22.5 42 24 43.5 25.84 43.5H42.14C43.98 43.5 45.48 42 45.48 40.16V38C45.48 31.66 40.32 26.5 33.98 26.5H34ZM42.5 40.16C42.5 40.36 42.34 40.5 42.16 40.5H25.86C25.66 40.5 25.52 40.34 25.52 40.16V38C25.52 33.32 29.34 29.5 34.02 29.5C38.7 29.5 42.52 33.32 42.52 38V40.16H42.5Z" fill="#00688E"/>
</svg>
