<svg width="64" height="64" viewBox="0 0 64 64" fill="none" xmlns="http://www.w3.org/2000/svg">
<g clip-path="url(#clip0_51938_8301)">
<path d="M4 34C3.46957 34 2.96086 33.7893 2.58579 33.4142C2.21071 33.0391 2 32.5304 2 32C2 31.292 2.024 30.578 2.074 29.874C2.09239 29.6114 2.16232 29.3549 2.27982 29.1193C2.39731 28.8837 2.56006 28.6735 2.75878 28.5008C2.9575 28.3281 3.18829 28.1962 3.43798 28.1127C3.68766 28.0291 3.95136 27.9956 4.214 28.014C4.47664 28.0324 4.73309 28.1023 4.96871 28.2198C5.20433 28.3373 5.41449 28.5001 5.58721 28.6988C5.75992 28.8975 5.89181 29.1283 5.97533 29.378C6.05886 29.6277 6.09238 29.8914 6.074 30.154C6.022 30.764 6 31.386 6 32C6 32.5304 5.78929 33.0391 5.41421 33.4142C5.03914 33.7893 4.53043 34 4 34ZM5.754 24.222C5.431 24.2221 5.11278 24.1439 4.82656 23.9942C4.54035 23.8445 4.29465 23.6277 4.11047 23.3624C3.9263 23.097 3.80914 22.791 3.769 22.4705C3.72886 22.15 3.76695 21.8246 3.88 21.522C4.62975 19.5119 5.59328 17.5882 6.754 15.784C6.89528 15.5614 7.0792 15.3689 7.29516 15.2176C7.51112 15.0663 7.75487 14.9592 8.01237 14.9025C8.26988 14.8457 8.53606 14.8405 8.79561 14.887C9.05515 14.9335 9.30293 15.0309 9.52469 15.1736C9.74645 15.3163 9.93781 15.5014 10.0878 15.7182C10.2377 15.9351 10.3433 16.1795 10.3984 16.4374C10.4536 16.6952 10.4572 16.9614 10.4091 17.2207C10.3609 17.4799 10.262 17.7271 10.118 17.948C9.11229 19.5113 8.27749 21.1783 7.628 22.92C7.48566 23.3022 7.22986 23.6318 6.89491 23.8645C6.55995 24.0972 6.16186 24.222 5.754 24.222ZM13.66 12.842C13.2524 12.8421 12.8545 12.7177 12.5196 12.4854C12.1847 12.2531 11.9288 11.924 11.786 11.5423C11.6433 11.1605 11.6207 10.7442 11.7211 10.3492C11.8215 9.95417 12.0403 9.59926 12.348 9.332C13.9679 7.92667 15.7332 6.69837 17.614 5.668C17.8448 5.53511 18.0998 5.44964 18.364 5.41661C18.6282 5.38357 18.8964 5.40364 19.1528 5.47564C19.4092 5.54763 19.6486 5.6701 19.857 5.83587C20.0654 6.00163 20.2386 6.20734 20.3665 6.44094C20.4943 6.67453 20.5743 6.93131 20.6015 7.1962C20.6288 7.4611 20.603 7.72878 20.5254 7.98353C20.4479 8.23829 20.3202 8.475 20.15 8.67977C19.9797 8.88454 19.7703 9.05325 19.534 9.176C17.9033 10.0691 16.3726 11.1338 14.968 12.352C14.6051 12.6672 14.1407 12.8412 13.66 12.842ZM26.042 6.642C25.5475 6.64319 25.07 6.46112 24.7019 6.13094C24.3337 5.80076 24.1009 5.34589 24.0485 4.85415C23.996 4.36241 24.1276 3.86866 24.4178 3.46825C24.7081 3.06784 25.1363 2.78916 25.62 2.686C27.7163 2.2313 29.855 2.00134 32 2C32.5304 2 33.0391 2.21071 33.4142 2.58579C33.7893 2.96086 34 3.46957 34 4C34 4.53043 33.7893 5.03914 33.4142 5.41421C33.0391 5.78929 32.5304 6 32 6C30.1403 5.99962 28.2858 6.19741 26.468 6.59C26.3281 6.62054 26.1852 6.63597 26.042 6.636V6.642Z" fill="white"/>
</g>
<path d="M60 30C60.5304 30 61.0391 30.2107 61.4142 30.5858C61.7893 30.9609 62 31.4696 62 32C62 32.708 61.976 33.422 61.926 34.126C61.9076 34.3886 61.8377 34.6451 61.7202 34.8807C61.6027 35.1163 61.4399 35.3265 61.2412 35.4992C61.0425 35.6719 60.8117 35.8038 60.562 35.8873C60.3123 35.9709 60.0486 36.0044 59.786 35.986C59.5234 35.9676 59.2669 35.8977 59.0313 35.7802C58.7957 35.6627 58.5855 35.4999 58.4128 35.3012C58.2401 35.1025 58.1082 34.8717 58.0247 34.622C57.9411 34.3723 57.9076 34.1086 57.926 33.846C57.978 33.236 58 32.614 58 32C58 31.4696 58.2107 30.9609 58.5858 30.5858C58.9609 30.2107 59.4696 30 60 30ZM58.246 39.778C58.569 39.7779 58.8872 39.8561 59.1734 40.0058C59.4597 40.1555 59.7054 40.3723 59.8895 40.6376C60.0737 40.903 60.1909 41.209 60.231 41.5295C60.2711 41.85 60.2331 42.1754 60.12 42.478C59.3702 44.4881 58.4067 46.4118 57.246 48.216C57.1047 48.4386 56.9208 48.6311 56.7048 48.7824C56.4889 48.9337 56.2451 49.0408 55.9876 49.0975C55.7301 49.1543 55.4639 49.1595 55.2044 49.113C54.9449 49.0665 54.6971 48.9691 54.4753 48.8264C54.2535 48.6837 54.0622 48.4986 53.9122 48.2818C53.7623 48.0649 53.6567 47.8205 53.6016 47.5626C53.5464 47.3048 53.5428 47.0386 53.5909 46.7793C53.6391 46.5201 53.738 46.2729 53.882 46.052C54.8877 44.4887 55.7225 42.8217 56.372 41.08C56.5143 40.6978 56.7701 40.3682 57.1051 40.1355C57.44 39.9028 57.8381 39.7781 58.246 39.778ZM50.34 51.158C50.7476 51.1579 51.1455 51.2823 51.4804 51.5146C51.8153 51.7469 52.0712 52.076 52.214 52.4577C52.3567 52.8395 52.3793 53.2558 52.2789 53.6508C52.1785 54.0458 51.9597 54.4007 51.652 54.668C50.0321 56.0733 48.2668 57.3016 46.386 58.332C46.1552 58.4649 45.9002 58.5504 45.636 58.5834C45.3718 58.6164 45.1036 58.5964 44.8472 58.5244C44.5908 58.4524 44.3514 58.3299 44.143 58.1641C43.9346 57.9984 43.7614 57.7927 43.6335 57.5591C43.5057 57.3255 43.4257 57.0687 43.3985 56.8038C43.3712 56.5389 43.397 56.2712 43.4746 56.0165C43.5521 55.7617 43.6798 55.525 43.85 55.3202C44.0203 55.1155 44.2297 54.9468 44.466 54.824C46.0967 53.9309 47.6274 52.8662 49.032 51.648C49.3949 51.3328 49.8593 51.1588 50.34 51.158ZM37.958 57.358C38.4525 57.3568 38.93 57.5389 39.2981 57.8691C39.6663 58.1992 39.8991 58.6541 39.9515 59.1458C40.004 59.6376 39.8724 60.1313 39.5822 60.5317C39.2919 60.9322 38.8637 61.2108 38.38 61.314C36.2837 61.7687 34.145 61.9987 32 62C31.4696 62 30.9609 61.7893 30.5858 61.4142C30.2107 61.0391 30 60.5304 30 60C30 59.4696 30.2107 58.9609 30.5858 58.5858C30.9609 58.2107 31.4696 58 32 58C33.8597 58.0004 35.7142 57.8026 37.532 57.41C37.6719 57.3795 37.8148 57.364 37.958 57.364L37.958 57.358Z" fill="white"/>
<defs>
<clipPath id="clip0_51938_8301">
<rect width="64" height="64" fill="white"/>
</clipPath>
</defs>
</svg>
