<svg width="32" height="32" viewBox="0 0 32 32" fill="none" xmlns="http://www.w3.org/2000/svg">
<g clip-path="url(#clip0_51772_21433)">
<path d="M8 29.3598C7.20492 29.358 6.44293 29.0413 5.88072 28.4791C5.31851 27.9169 5.00185 27.1549 5 26.3598V5.64283C4.99995 5.10519 5.1444 4.57741 5.41821 4.11472C5.69202 3.65203 6.08515 3.27142 6.55646 3.01272C7.02777 2.75401 7.55994 2.62672 8.0973 2.64416C8.63466 2.66159 9.15745 2.82312 9.611 3.11183L25.885 13.4688C26.3106 13.7398 26.6609 14.1138 26.9036 14.5561C27.1464 14.9984 27.2736 15.4948 27.2736 15.9993C27.2736 16.5039 27.1464 17.0002 26.9036 17.4426C26.6609 17.8849 26.3106 18.2588 25.885 18.5298L9.611 28.8878C9.13007 29.1957 8.57105 29.3595 8 29.3598ZM8 4.63983C7.73527 4.64141 7.48183 4.74727 7.29463 4.93446C7.10744 5.12166 7.00157 5.3751 7 5.63983V26.3568C7.00157 26.6216 7.10744 26.875 7.29463 27.0622C7.48183 27.2494 7.73527 27.3553 8 27.3568C8.18939 27.3561 8.3745 27.3005 8.533 27.1968L24.811 16.8428C24.9529 16.7525 25.0696 16.6278 25.1506 16.4804C25.2315 16.333 25.2739 16.1675 25.2739 15.9993C25.2739 15.8312 25.2315 15.6657 25.1506 15.5183C25.0696 15.3708 24.9529 15.2462 24.811 15.1558L8.537 4.79983C8.37739 4.69537 8.19076 4.63976 8 4.63983Z" fill="#05BD83"/>
</g>
<defs>
<clipPath id="clip0_51772_21433">
<rect width="32" height="32" fill="white"/>
</clipPath>
</defs>
</svg>
