<svg width="48" height="48" viewBox="0 0 48 48" fill="none" xmlns="http://www.w3.org/2000/svg">
<g clip-path="url(#clip0_2333_1657)">
<path d="M37.4844 0.5H10.5156C4.99219 0.5 0.5 4.99219 0.5 10.5156V37.4844C0.5 43.0078 4.99219 47.5 10.5156 47.5H37.4844C43.0078 47.5 47.5 43.0078 47.5 37.4844V10.5156C47.5 4.99219 43.0078 0.5 37.4844 0.5ZM44.5 37.4844C44.5 41.3535 41.3535 44.5 37.4844 44.5H10.5156C6.64648 44.5 3.5 41.3535 3.5 37.4844V10.5156C3.5 6.64648 6.64648 3.5 10.5156 3.5H37.4844C41.3535 3.5 44.5 6.64648 44.5 10.5156V37.4844Z" fill="#00688E"/>
<path d="M40.7246 28.6855L34.6562 25.3438L31.3145 19.2754C30.7871 18.3184 29.2129 18.3184 28.6855 19.2754L25.3438 25.3438L19.2754 28.6855C18.7969 28.9492 18.5 29.4531 18.5 30C18.5 30.5469 18.7969 31.0508 19.2754 31.3145L25.3438 34.6562L28.6855 40.7246C28.9492 41.2031 29.4531 41.5 30 41.5C30.5469 41.5 31.0508 41.2031 31.3145 40.7246L34.6562 34.6562L40.7246 31.3145C41.2031 31.0508 41.5 30.5469 41.5 30C41.5 29.4531 41.2031 28.9492 40.7246 28.6855ZM32.8281 32.2383C32.5801 32.375 32.375 32.5801 32.2383 32.8281L30 36.8926L27.7617 32.8281C27.625 32.5801 27.4199 32.375 27.1719 32.2383L23.1074 30L27.1719 27.7617C27.4199 27.625 27.625 27.4199 27.7617 27.1719L30 23.1074L32.2383 27.1719C32.375 27.4199 32.5801 27.625 32.8281 27.7617L36.8926 30L32.8281 32.2383Z" fill="#00688E"/>
<path d="M18.7754 13.3145L21.2969 14.7031L22.6855 17.2246C22.9512 17.7031 23.4531 18 24 18C24.5469 18 25.0488 17.7031 25.3145 17.2246L26.7031 14.7031L29.2246 13.3145C29.7031 13.0488 30 12.5469 30 12C30 11.4531 29.7031 10.9512 29.2246 10.6855L26.7031 9.29688L25.3145 6.77539C24.7832 5.81836 23.2168 5.81836 22.6855 6.77539L21.2969 9.29688L18.7754 10.6855C18.2969 10.9512 18 11.4531 18 12C18 12.5469 18.2969 13.0488 18.7754 13.3145ZM23.125 11.7148C23.373 11.5762 23.5762 11.373 23.7148 11.125L24 10.6055L24.2852 11.125C24.4238 11.373 24.627 11.5762 24.875 11.7148L25.3945 12L24.875 12.2852C24.627 12.4238 24.4238 12.627 24.2852 12.875L24 13.3945L23.7148 12.875C23.5762 12.627 23.373 12.4238 23.125 12.2852L22.6055 12L23.125 11.7148Z" fill="#00688E"/>
<path d="M21.3945 21.6973C21.3945 21.1504 21.0977 20.6484 20.6191 20.3828L17.3242 18.5684L15.5117 15.2754C15.248 14.7969 14.7441 14.5 14.1973 14.5C13.6504 14.5 13.1484 14.7969 12.8848 15.2754L11.0684 18.5684L7.77539 20.3848C7.29688 20.6484 7 21.1504 7 21.6973C7 22.2441 7.29688 22.748 7.77539 23.0117L11.0684 24.8242L12.8828 28.1191C13.1484 28.5977 13.6504 28.8945 14.1973 28.8945C14.7441 28.8945 15.248 28.5977 15.5117 28.1191L17.3242 24.8242L20.6191 23.0117C21.0977 22.748 21.3945 22.2441 21.3945 21.6973ZM15.4961 22.4062C15.248 22.543 15.043 22.748 14.9062 22.9961L14.1973 24.2871L13.4863 22.9961C13.3477 22.748 13.1445 22.543 12.8965 22.4062L11.6074 21.6973L12.8965 20.9844C13.1445 20.8477 13.3477 20.6445 13.4844 20.3965L14.1973 19.1074L14.9062 20.3965C15.043 20.6445 15.248 20.8477 15.4961 20.9863L16.7871 21.6973L15.4961 22.4062Z" fill="#00688E"/>
</g>
<defs>
<clipPath id="clip0_2333_1657">
<rect width="48" height="48" fill="white"/>
</clipPath>
</defs>
</svg>
